<svg id="Capa_1" enable-background="new 0 0 512.108 512.108" height="512" viewBox="0 0 512.108 512.108" width="512" xmlns="http://www.w3.org/2000/svg"><g><path d="m254.543 422.482c19.844 0 38.948-7.307 53.792-20.575 3.088-2.761 3.354-7.502.594-10.59-2.759-3.087-7.501-3.356-10.59-.594-12.091 10.807-27.645 16.759-43.796 16.759-36.495 0-66.187-30.045-66.187-66.976s29.691-66.977 66.187-66.977 66.186 30.046 66.186 66.977c0 8.391-1.512 16.571-4.493 24.313-1.488 3.865.438 8.206 4.304 9.694 3.868 1.49 8.206-.44 9.694-4.304 3.646-9.47 5.495-19.463 5.495-29.704 0-45.202-36.42-81.977-81.186-81.977-44.767 0-81.187 36.774-81.187 81.977s36.42 81.977 81.187 81.977z"/><path d="m217.129 340.507c0 20.807 16.784 37.733 37.414 37.733s37.413-16.927 37.413-37.733-16.783-37.734-37.413-37.734-37.414 16.927-37.414 37.734zm59.827 0c0 12.535-10.055 22.733-22.413 22.733-12.359 0-22.414-10.198-22.414-22.733 0-12.536 10.055-22.734 22.414-22.734 12.358-.001 22.413 10.198 22.413 22.734z"/><path d="m506.634 64.152c-5.355-7.367-13.626-11.593-22.689-11.593h-455.71c-18.836-.552-33.271 20.055-26.566 37.634l17.644 44.036c5.105 15.55 15.199 28.324 28.137 36.779v86.051c0 111.659 90.841 202.5 202.499 202.5h12.282c111.659 0 202.5-90.841 202.5-202.5v-86.051c12.938-8.455 23.032-21.228 28.138-36.779l17.643-44.037c3.093-8.872 1.634-18.46-3.878-26.04zm-27.954 65.203c-7.342 22.651-28.13 37.881-51.678 37.885h-18.909c-4.143 0-7.5 3.357-7.5 7.5s3.357 7.5 7.5 7.5h18.909c7.907 0 15.562-1.352 22.728-3.851v78.67c0 57.743-26.244 109.466-67.423 143.888l-15.754-86.204c-9.879-54.056-56.551-93.29-110.976-93.29-54.43 0-101.103 39.238-110.978 93.301l-1.983 10.855c-.744 4.074 1.955 7.981 6.03 8.726 4.07.74 7.981-1.955 8.726-6.03l1.983-10.855c8.572-46.933 49.039-80.996 96.222-80.996 47.178 0 87.644 34.06 96.22 80.987l17.126 93.712c-30.306 21.048-67.081 33.407-106.693 33.407h-12.282c-40.005 0-77.117-12.601-107.594-34.032l8.73-47.792c.744-4.075-1.956-7.981-6.03-8.726-4.077-.74-7.981 1.956-8.726 6.03l-7.336 40.163c-40.671-34.421-66.543-85.814-66.543-143.144v-78.67c7.166 2.499 14.82 3.851 22.728 3.851h287.897c4.143 0 7.5-3.357 7.5-7.5s-3.357-7.5-7.5-7.5h-287.897c-37.768-.97-49.056-27.906-60.127-59.021h55.04c4.143 0 7.5-3.357 7.5-7.5s-3.357-7.5-7.5-7.5h-61.05l-3.343-8.344c-2.786-8.164 3.868-17.558 12.538-17.315h455.709c8.67-.242 15.325 9.152 12.538 17.315l-3.343 8.344h-378.049c-4.143 0-7.5 3.357-7.5 7.5s3.357 7.5 7.5 7.5h372.04c-.17.469-8.324 20.691-8.45 21.136z"/></g></svg>