<svg id="Capa_1" enable-background="new 0 0 448 448" height="512" viewBox="0 0 448 448" width="512" xmlns="http://www.w3.org/2000/svg"><path d="m59.056 192h-38.112l8 16h22.112z"/><path d="m32 48h16v16h16v-48h-48v48h16zm0-24h16v16h-16z"/><path d="m75.056 160h-70.112l8 16h54.112z"/><path d="m104 416c-30.914-.035-55.965-25.086-56-56v-136h-16v136c.045 39.746 32.254 71.955 72 72h56.058c-8.399-4.496-16.304-9.858-23.587-16z"/><path d="m80 80h-16v18c-.008 7.729-6.271 13.992-14 14h-20c-7.729-.008-13.992-6.271-14-14v-18h-16v64h80z"/><path d="m32 80h16v16h-16z"/><path d="m432 80v18c-.008 7.729-6.271 13.992-14 14h-20c-7.729-.008-13.992-6.271-14-14v-18h-16v64h80v-64z"/><path d="m400 360c-.035 30.914-25.086 55.965-56 56h-32.471c-7.283 6.142-15.188 11.504-23.587 16h56.058c39.746-.045 71.955-32.254 72-72v-136h-16z"/><path d="m380.944 176h54.112l8-16h-70.112z"/><path d="m396.944 208h22.112l8-16h-38.112z"/><path d="m400 80h16v16h-16z"/><path d="m400 48h16v16h16v-48h-48v48h16zm0-24h16v16h-16z"/><path d="m344 312c0-66.274-53.726-120-120-120s-120 53.726-120 120 53.726 120 120 120c66.243-.075 119.925-53.757 120-120zm-120 104c-57.438 0-104-46.562-104-104s46.562-104 104-104 104 46.562 104 104c-.065 57.411-46.589 103.935-104 104z"/><path d="m224 224c-48.601 0-88 39.399-88 88s39.399 88 88 88 88-39.399 88-88c-.055-48.578-39.422-87.945-88-88zm0 16.5c16.399.012 32.298 5.649 45.043 15.97l-10.086 12.42c-9.861-8.063-22.22-12.443-34.957-12.39zm0 143v-16c30.661-.009 55.509-24.871 55.5-55.532-.003-9.814-2.607-19.452-7.547-27.931l13.813-8.074c19.894 34.121 8.36 77.909-25.761 97.803-10.929 6.372-23.354 9.731-36.005 9.734z"/></svg>