<svg id="Layer_1" data-name="Layer 1" xmlns="http://www.w3.org/2000/svg" viewBox="0 0 600 600"><defs><style>.cls-1{fill:#e62445;}</style></defs><title>logo</title><path class="cls-1" d="M412.06,297.73c12.79,6.2,24.92,1.13,28.47-11.47,6.62-23.52,8.59-47.58,7.74-71.92-.22-6.26-.67-12.51-.72-18.76a20.2,20.2,0,0,1,17.62-20.49c9-1.25,18.88,5.07,21.25,14.73,1.54,6.24,1.7,12.87,2,19.35,2.61,53.63-7.8,104.38-35.81,150.55C421.39,411.21,376,442.84,316,451.47c-83.7,12-161.23-33.05-199.35-104.73-4.3-8.07-5.81-16.22-.18-24.35,4.82-7,11.65-9.29,19.79-8.19s12.58,6.59,16.21,13.28C174,367.13,205.89,394,249.29,407.31c52.15,16.07,118.2-3.17,152.8-45.22,7.45-9,7.85-20,1-27.79-7.34-8.3-13.43-8.71-21.58-1.46-66.95,59.6-173.77,46.39-224.76-27.79-42-61.1-36.12-141.26,16.16-193.6,42.3-42.36,94.19-56.36,151.65-39.36,56.08,16.59,91.82,55,105.46,112.3,8.84,37.15,3.57,73-14.71,106.67C414.21,293.1,413.28,295.23,412.06,297.73ZM148.25,217.6c-.56,73.25,59,133.43,132.61,134.06,72.41.61,133.2-59.13,134.35-130.94C416.36,149.22,361.15,86,284,84.4,208.74,82.84,148.82,142.63,148.25,217.6Z"/><path class="cls-1" d="M575.73,159.12c-2,49.35-6.87,98.25-18.63,146.27-15,61-40.59,116.53-86.09,161.2-44.82,44-99.27,65.53-161.7,68.11-46.08,1.91-90.14-7-132.78-23.9-10.78-4.27-15.45-11-15.11-21.19.28-8.14,5.54-15.86,13.94-17.64a30,30,0,0,1,15.8,1.26c26,9.7,52.48,17.26,80.07,20.08,80.12,8.19,146.2-17.26,195-82.82C497,369.26,513,321.91,522.83,272.1c8.85-44.91,11.34-90.39,12.23-136,.09-4.63.24-9.54,1.79-13.79,3.31-9.08,12.43-13.59,22.13-12,9.45,1.59,16.37,9.52,16.69,19.86C576,139.83,575.73,149.48,575.73,159.12Z"/><path class="cls-1" d="M136.62,443.19c-.48,11.49-3.74,17.82-11.6,21.23-8.54,3.71-16.2,2.51-23-3.94C81.62,441.2,63.66,419.81,50.71,395,41.37,377,33.87,358.1,26.52,339.25c-5.46-14-1.08-24.77,10.22-29.47,11.66-4.86,23.58,1,27.35,14.15,8.88,31,23.87,58.76,44,83.74,6.51,8.09,14.36,15.1,21,23.11C132.72,435.16,135.09,440.6,136.62,443.19Z"/><path class="cls-1" d="M100.47,256.38c0,5.19.33,10.41-.07,15.58a19.48,19.48,0,0,1-18.84,18.29c-10.36.48-19.25-5.85-20.39-16.28a206.49,206.49,0,0,1-1-34.18c.58-9.94,10.72-17.07,21.17-16.55a19.58,19.58,0,0,1,18.78,18.33c.27,4.92,0,9.87,0,14.81Z"/><path class="cls-1" d="M362.63,130.57C392,152,414.06,207.24,395,259c-18.36,49.83-69.29,86.87-130.75,78.16C211.75,329.74,168,288,161.8,230.31c-5.58-51.88,24.74-97.76,57.18-113.77-.16,24,7.22,44.66,26,60.25C259.16,188.64,275.45,194,294,193.67,328,193,356,167.65,362.63,130.57ZM266,289.88c17.5-.06,31.56-13.92,31.49-31-.07-16.39-14.77-31-31.1-30.93-17.42.1-31.51,14.13-31.41,31.28A31.18,31.18,0,0,0,266,289.88Z"/></svg>