<svg xmlns="http://www.w3.org/2000/svg" viewBox="0 0 849.23 523.19"><defs><style>.cls-1{fill:#fff;}</style></defs><title>white-logo</title><g id="Layer_2" data-name="Layer 2"><g id="Layer_1-2" data-name="Layer 1"><path class="cls-1" d="M458.63,148.67c8.17,4,15.91.72,18.18-7.33,4.23-15,5.49-30.4,4.95-45.95-.14-4-.43-8-.46-12a12.91,12.91,0,0,1,11.26-13.09,12.7,12.7,0,0,1,13.58,9.41,65.3,65.3,0,0,1,1.28,12.37c1.67,34.26-5,66.69-22.88,96.19-20,32.89-49,53.1-87.3,58.62-53.48,7.69-103-21.12-127.38-66.92-2.74-5.15-3.71-10.36-.11-15.55,3.08-4.45,7.44-5.94,12.65-5.24s8,4.22,10.35,8.49c13.75,25.33,34.15,42.46,61.87,51,33.32,10.26,75.53-2,97.64-28.9,4.75-5.78,5-12.8.64-17.75-4.69-5.31-8.58-5.57-13.79-.94-42.78,38.08-111,29.64-143.61-17.76-26.83-39-23.07-90.25,10.33-123.69,27-27.07,60.18-36,96.9-25.15,35.82,10.6,58.66,35.17,67.37,71.75,5.65,23.74,2.29,46.62-9.4,68.16C460,145.71,459.4,147.07,458.63,148.67ZM290.06,97.47c-.35,46.8,37.68,85.26,84.73,85.65,46.27.4,85.11-37.77,85.85-83.66.73-45.68-34.55-86.08-83.86-87.09C328.72,11.37,290.43,49.57,290.06,97.47Z" transform="translate(0 0)"/><path class="cls-1" d="M563.2,60.11c-1.29,31.53-4.39,62.78-11.91,93.46-9.55,39-25.93,74.45-55,103-28.64,28.11-63.43,41.86-103.32,43.52-29.44,1.22-57.59-4.48-84.84-15.27-6.88-2.73-9.87-7-9.65-13.54.18-5.2,3.54-10.14,8.91-11.27a19.11,19.11,0,0,1,10.1.8c16.59,6.2,33.52,11,51.15,12.83,51.19,5.24,93.41-11,124.62-52.91,19.63-26.35,29.86-56.6,36.14-88.43,5.65-28.69,7.24-57.75,7.81-86.9a27.53,27.53,0,0,1,1.15-8.81c2.11-5.8,7.93-8.68,14.14-7.64a12.88,12.88,0,0,1,10.66,12.69C563.35,47.79,563.2,54,563.2,60.11Z" transform="translate(0 0)"/><path class="cls-1" d="M332,378.61v22.44c0,15,1.32,16.34,16.15,16.36,1,0,2,0,3,0,9.79-.16,12.3-2.69,12.39-12.58.05-5.17,0-10.34,0-15.5,0-8.88,0-8.88,9.81-10.08,0,8.68,0,17.31,0,25.94,0,9.38,2.79,12.13,12.24,12.22,3.16,0,6.34.08,9.49-.1,6.16-.35,9.07-3.23,9.29-9.46s.1-12.33.11-18.49c0-8.88,0-8.88,9.86-10.06,0,8.67,0,17.29,0,25.92,0,9.19,2.73,12,11.81,12.17,5.31.11,10.61,0,17.14,0-6.51-8-7.83-16.34-4.85-24.9a23.81,23.81,0,0,1,7.18-10.33c6.81-5.44,19.42-4.51,25.62,1,8.21,7.33,8.82,19.95,1.31,33.86,7.14,0,14,.41,20.87-.14,4.88-.39,6.85-4.29,6.95-8.93.12-6.17.09-12.34.1-18.5,0-8.8,0-8.8,9.86-10.26,0,8.5,0,16.93,0,25.36,0,10.25,2.94,13,13.19,12.73,16.45-.48,17-1.09,17-17.57q0-15.5,0-31c0-8.5.12-8.62,9.89-9.62v5.36c0,14,.05,28,0,42-.07,12.07-7.15,19.35-19.23,19.47-8.73.08-17.84,1.56-25.61-5.31-6.06,5.56-13.54,5.44-21.09,5.41q-29-.15-57.92,0c-6.16,0-11.95-.93-16.42-4.92-14,7.05-27.56,7-41.9.34-15.66,7.33-33.65,6.72-42.18-1.83-6.55,7.2-14.73,7.62-23.27,5.06-8.16-2.43-10.95-9.12-11.78-16.87a51.63,51.63,0,0,1-.39-8.95c1-14.25,7.45-20.2,21.77-20.26C318.78,378.59,325.08,378.61,332,378.61Zm-9.56,8.76c-18.17-3.14-24.8,3.56-21.47,20.55.09.49.18,1,.29,1.46,1.41,5.93,4.5,8.22,10.75,8,5.39-.21,8.7-2.84,9.28-8.47C322.05,401.84,322.11,394.72,322.48,387.37Zm146.61,13.19c-.53-8-4.53-12.87-11.15-13.22-6-.32-11.1,4.84-11.24,12.05-.06,3.21.37,7,2,9.53,2.1,3.26,5.37,7.22,8.71,7.87,4.49.86,7.34-3.76,9.12-7.79A68.47,68.47,0,0,0,469.09,400.56Z" transform="translate(0 0)"/><path class="cls-1" d="M82.41,379.19c0,9,0,17.69,0,26.33,0,8.81,2.86,11.74,11.62,11.8,15.83.11,31.65.07,47.47.07,1.14,0,2.27-.18,3.33-.27,2.32-10-.49-18.85-7.24-23.31-8.2-5.42-19.1-3.83-30.22,4.63l-6.51-5.93,20.77-21.81,6.23-6.48c6.38-6.62,7.32-6.91,17.86-5.16l-21.26,22.5c4.07.46,7.52.5,10.81,1.28,11.25,2.64,18.09,10,19.75,21.22,1,7,.19,14.21.19,21.6a28.81,28.81,0,0,1-3.29.35c-19.83,0-39.65.27-59.47-.17-5-.11-10-2.4-16.22-4-11.85,7.05-32.32,6.43-41.24-2.37-3.45,4.44-8.2,6.28-13.7,6.51-12.49.5-19.67-5.1-21-17.56a55.53,55.53,0,0,1,1-17.24c1.56-7.45,7-11.67,14.6-12.17a217.36,217.36,0,0,1,22-.17c1.12,0,3,2.31,3.09,3.61.3,7.65.09,15.32.17,23,.09,9.17,2.8,11.82,12,11.9,3.33,0,6.66.09,10-.06,6.14-.28,9.15-3.19,9.37-9.36s.11-12.33.12-18.49C72.59,380.66,72.58,380.66,82.41,379.19ZM31.59,387c-5.48,0-10.07-.7-14.28.26-2.54.59-6,3.51-6.4,5.82a60.83,60.83,0,0,0-.16,17.62c.65,5,4.87,6.73,9.69,6.66s8.88-1.95,9.54-6.92C31,402.82,31.08,395.07,31.59,387Z" transform="translate(0 0)"/><path class="cls-1" d="M282.64,241.61c-.31,7.34-2.39,11.38-7.41,13.56-5.46,2.37-10.36,1.6-14.71-2.51-13-12.32-24.5-26-32.78-41.87-6-11.45-10.75-23.55-15.45-35.59-3.49-8.95-.69-15.83,6.53-18.83,7.45-3.1,15.07.65,17.47,9a151.07,151.07,0,0,0,28.13,53.51c4.16,5.16,9.17,9.64,13.41,14.76C280.15,236.48,281.66,240,282.64,241.61Z" transform="translate(0 0)"/><path class="cls-1" d="M632.24,419.19c-6.47,7.64-14.45,7.89-22.7,5.76-7.71-2-11.56-7.95-12.08-15.42a69.38,69.38,0,0,1,1.12-19.15c1.52-7,7.06-10.86,14.19-11.34,7.29-.48,14.64-.22,22-.4,2.71-.06,3.34,1.25,3.32,3.69q-.12,11.73,0,23.47c.1,8.6,2.86,11.52,11.33,11.57,17.13.11,34.27,0,51.31,0,2.54-9.63-.36-19.26-6.88-23.51-8.52-5.56-19.67-4-30.6,4.58l-6.34-6c9.39-9.82,18.94-19.09,27.62-29.13,4.89-5.65,10.32-5.29,17.5-4.5L680,382c2.59,0,4.09,0,5.58,0,14.34.42,25.25,11,25.84,25.21.24,6,0,12,0,18.33a21.65,21.65,0,0,1-3.13.44c-20.15,0-40.29,0-60.44,0C642,426,636.22,425.08,632.24,419.19Zm-3.76-32.26c-5.21,0-9.49-.21-13.75.06a7.26,7.26,0,0,0-7.12,6.56,64,64,0,0,0-.3,15.27c.76,6.25,4.21,8.67,10.18,8.56s9.24-2.66,9.9-8.92C628.12,401.57,628.13,394.61,628.48,386.93Z" transform="translate(0 0)"/><path class="cls-1" d="M713.8,435c4.94.85,9.62,2.12,14.35,2.35,8.91.43,14.12-4.65,14.24-13.6.17-12.16.06-24.33.07-36.49v-5.66l9.95-2.95v38.13h25.3v-17.7c0-9,0-9,9.79-10.84V417h20.67V386.33l10.07-3.14V416.8c5.17,0,10,.52,14.63-.15s6.48-4.34,6.54-8.81c.08-6.17,0-12.33.05-18.5,0-8.88,0-8.88,9.48-10.18,0,11.08.8,22.2-.25,33.15-.84,8.84-8.61,13.63-19.28,13.67-23.49.09-47,0-70.48,0h-6.29c-2.69,13.4-10.75,20.26-24.44,20.09C719.42,446,717.53,444.52,713.8,435Z" transform="translate(0 0)"/><path class="cls-1" d="M165.29,426c2.57-6.18,5.72-9.61,12.56-8.78,5.89.72,11.93.15,18.35.15,0-8,.49-15.63-.16-23.17-.49-5.63-7.27-8.82-13.88-6.63-3.75,1.25-7,3.94-10.32,5.87-1.65-8.53,1-12.8,10-14.3,12.67-2.09,25.48,4.69,24.52,19.94-.36,5.77-.06,11.6-.06,17.9,7.15,0,13.93.32,20.66-.11,4.94-.31,7.5-3.94,7.57-10.07.15-12.66.07-25.32.07-38,0-8.53,0-8.53,9.52-9.71.12,1.43.34,2.84.34,4.25,0,14.5.11,29,0,43.49-.1,11.56-7,18.88-18.61,19.05-19,.27-38,.09-57,.1Z" transform="translate(0 0)"/><path class="cls-1" d="M65,521.84H57.63V467.22c4.37-1.35,7.13-.61,9.1,4.29,4.2,10.46,9.07,20.65,14.07,31.85,5-11.17,9.75-21.35,14-31.75,1.9-4.64,4.56-6,9.32-4.3v54.43H96.64V487l-1.16-.26c-3.48,8-6.86,16-10.54,23.86-.69,1.48-2.64,3.44-3.85,3.34a6.56,6.56,0,0,1-4.47-3.3c-3.76-7.75-7.15-15.68-11.67-23.45Z" transform="translate(0 0)"/><path class="cls-1" d="M596.63,467.26c5.12-1.52,7.39.1,9.11,4.3C610,482,614.8,492.17,619.8,503.37c4.91-11.06,9.66-21.09,13.81-31.37,1.83-4.52,4.26-6.35,9.34-4.84v54.6h-7V487l-1.35-.38c-1.53,3.45-3.09,6.89-4.6,10.35-2,4.57-3.78,9.25-6,13.68-.75,1.48-2.63,3.24-4,3.29s-3.41-1.67-4.1-3.11c-3.8-7.89-7.28-15.94-11.89-23.8v34.66h-7.26Z" transform="translate(0 0)"/><path class="cls-1" d="M799.8,521.56c-4.85,1.36-7.4-.2-9.75-4.13-6.4-10.71-13.35-21.09-20.1-31.6-.69-1.08-1.53-2.07-3.13-4.23v40.09h-7.2V467.21c4.08-1.13,6.86-.53,9.35,3.66,7.16,12,14.87,23.67,23.19,36.78V467.06h7.64Z" transform="translate(0 0)"/><path class="cls-1" d="M181.26,521.79h-7.58V467.2c8.77,0,17.41-.58,25.93.19,6.11.56,9.94,5,11.16,11.23,1.31,6.7-.06,12.57-5.68,17-1.15.9-2.44,1.61-4,2.64l12,23c-8.08,1.79-8.23,1.69-11.59-5.15q-2.64-5.37-5.41-10.67c-4.19-8-4.77-8.27-14.79-6.38Zm.07-30.6c5.38,0,10.19.24,15-.07,5-.32,6.67-4,6.8-8.35.12-4.13-1.47-8-6-8.53-5.18-.61-10.49-.14-15.79-.14Z" transform="translate(0 0)"/><path class="cls-1" d="M460.14,467.25v54.46h-7.38V498.82H429.23v22.79h-7.57V467.05H429v23.61h23.67V472.89C452.65,466.12,452.74,466,460.14,467.25Z" transform="translate(0 0)"/><path class="cls-1" d="M542.35,494.44c0-3.49-.19-7,0-10.47.67-10.41,8.11-17.52,18.47-17.87,10.6-.36,18.92,6.44,19.7,16.95a146.61,146.61,0,0,1-.1,22.86c-.88,10.68-8.62,16.74-19.9,16.46-10.13-.25-17.5-7.25-18.18-17.47C542.15,501.43,542.34,497.93,542.35,494.44Zm7.84-.41h.15c0,3.82-.37,7.69.08,11.46.68,5.66,4.86,9.18,10.48,9.55,5.34.35,10.74-2.49,11.28-7.76a120.84,120.84,0,0,0,0-25.72c-.66-5.79-6.09-8.41-12.15-7.75-5.49.59-9.33,4.45-9.79,10.24C550,487.36,550.19,490.7,550.19,494Z" transform="translate(0 0)"/><path class="cls-1" d="M330.41,514.74c7.09,0,14,0,21,0,6.64,0,6.64-.05,5.94,6.92H322.7V466.71c10.89,0,21.66-.3,32.4.14,4.63.19,1.83,4.2,2.55,7H330.54v16.85h22.67V498h-22.8Z" transform="translate(0 0)"/><path class="cls-1" d="M259.54,122.25c0,3.32.21,6.65-.05,9.95a12.43,12.43,0,0,1-12,11.69c-6.62.31-12.3-3.73-13-10.4a131.69,131.69,0,0,1-.62-21.84c.37-6.35,6.85-10.9,13.53-10.57a12.49,12.49,0,0,1,12,11.7c.18,3.15,0,6.31,0,9.47Z" transform="translate(0 0)"/><path class="cls-1" d="M667.09,500.34v21.32h-7.48V467.59c8.94,0,17.93-.94,26.62.28,7.67,1.07,12,9.55,11,17.73-1.11,8.73-6.53,14.24-14.86,14.69C677.43,500.55,672.48,500.34,667.09,500.34Zm.35-26.31V493.1c5.1,0,9.89.3,14.63-.08s7.42-4.11,7.35-9.55-2.95-9.08-7.69-9.37S672.49,474,667.44,474Z" transform="translate(0 0)"/><path class="cls-1" d="M748.12,521.59c-7.89.91-8.22,1-10.11-5.94-1.27-4.66-3.47-6.73-8.31-5.93a30.63,30.63,0,0,1-5,0c-10.51,0-10.58,0-14.45,9.58-1.9,4.72-5.58,1.9-9.22,2.77,2.3-6.34,4.36-12.07,6.46-17.77,4.25-11.54,8.44-23.11,12.92-34.56a5.9,5.9,0,0,1,4.19-3,4.92,4.92,0,0,1,4,2.38C735.27,486.6,741.65,504.06,748.12,521.59Zm-23-42.89-1.11.18c-2.63,7.72-5.26,15.45-8,23.35h17.14Z" transform="translate(0 0)"/><path class="cls-1" d="M162.1,521.48c-6,1.64-9.42.13-10.18-5.66-.67-5.14-3.62-7-8.6-6.09a14,14,0,0,1-4,0c-7.83-.91-14.33-.21-15.59,9.85-.17,1.38-4.76,2.21-8,3.59,0-2-.17-2.69,0-3.22C121.9,503.3,128,486.62,134.34,470a6.06,6.06,0,0,1,4.06-3.15c1.27-.21,3.69,1,4.13,2.15C149.16,486.38,155.56,503.82,162.1,521.48Zm-22.9-42.75h-1.07c-2.64,7.68-5.28,15.36-8.11,23.61h17.22C144.43,494.08,141.81,486.41,139.2,478.73Z" transform="translate(0 0)"/><path class="cls-1" d="M4.06,515.49l4.55-5.34a25.07,25.07,0,0,0,18.78,5c5.57-.75,8.78-3.36,9.14-7.57.38-4.53-1.89-7.12-7.82-8.61-3.54-.89-7.17-1.45-10.72-2.32-7.81-1.93-11.48-6.46-11.55-14.08s4.3-13.43,11.71-15.36c8.79-2.28,16.18-.92,24.62,4.77l-3.61,5.21c-4-1.32-7.51-3-11.2-3.53a20.78,20.78,0,0,0-8.73,1.05c-3.53,1.08-5.91,4.13-4.9,7.64a11.78,11.78,0,0,0,5.59,6.58c3.67,1.75,8,2,12,3.12,9.23,2.59,12.91,7.57,12.15,16.14-.68,7.72-6.43,13.14-15.06,14C20.06,523,11.45,522.29,4.06,515.49Z" transform="translate(0 0)"/><path class="cls-1" d="M528.65,481.9c-4.21,1.13-7,.55-9.28-3.46-2.58-4.52-7.39-5.57-12.27-4.29a9.79,9.79,0,0,0-7.68,9.39,207,207,0,0,0,0,21.43,10.32,10.32,0,0,0,8.44,9.88c4.81.87,9.45-.26,11.65-4.71s5.42-4.48,9.3-3.81c-.12,8.66-9.58,16.51-18.62,16.1-10.36-.47-18-6.73-18.67-16.93a167.32,167.32,0,0,1,0-21.94,18.15,18.15,0,0,1,18.31-17.47C519.57,466,527.35,472.39,528.65,481.9Z" transform="translate(0 0)"/><path class="cls-1" d="M400.77,506.21h7.11c-1.26,10.06-8.8,16.29-19.31,16.08-10-.2-17.49-6.89-18.09-16.91a172.86,172.86,0,0,1,0-21.95c.69-10.23,8.44-17.2,18.45-17.35a18.33,18.33,0,0,1,18.82,15.83c-4,1.06-7,.74-9.43-3.51-2.6-4.59-7.44-5.44-12.3-4.26a9.47,9.47,0,0,0-7.53,8.94,184.46,184.46,0,0,0,0,22.43,10.24,10.24,0,0,0,8.94,9.43c5.13.72,9.11-1.25,11.82-5.67A33.49,33.49,0,0,0,400.77,506.21Z" transform="translate(0 0)"/><path class="cls-1" d="M263,426c-2.19,0-4.16,0-6.12,0-1,0-1.93-.19-3.38-.35V412.14q0-21.21,0-42.41c0-9.15,0-9.15,9.51-10.94Z" transform="translate(0 0)"/><path class="cls-1" d="M570.28,359v66.56h-9.76v-5.22q0-25.67,0-51.35C560.52,360.17,560.65,360,570.28,359Z" transform="translate(0 0)"/><path class="cls-1" d="M274.82,474.09v-6.84h38.36V474h-15V521.8h-7.58V474.09Z" transform="translate(0 0)"/><path class="cls-1" d="M242.09,474v47.61h-7.54V474.05H218.92c-.12-2.43-.21-4.36-.33-6.82H257.2V474Z" transform="translate(0 0)"/><path class="cls-1" d="M808.83,467.44c6.33-2.2,9,.51,11,5.24,2.59,6.09,5.66,12,9.08,19.12,3.53-7.21,6.59-13.51,9.68-19.8,2.87-5.85,2.88-5.84,10.6-4.75-2.65,5.29-5.18,10.42-7.78,15.5-2.27,4.45-5,8.69-6.8,13.31a35.64,35.64,0,0,0-1.89,10.62c-.3,4.92-.07,9.88-.07,15.06h-8.17C830.28,500.41,816.81,484.71,808.83,467.44Z" transform="translate(0 0)"/><path class="cls-1" d="M71.46,434.68c1.48,2,3.84,3.83,4.23,6a4.22,4.22,0,0,1-5,5.13c-2-.4-4.79-2.9-4.94-4.66-.18-2,2.19-4.24,3.45-6.37Z" transform="translate(0 0)"/><path class="cls-1" d="M811.93,364.82c-2,1.42-4,3.69-6.18,4.05-3.22.52-5.28-2-5.21-5.22s2-5.82,5.24-5.23c2.23.39,4.12,2.72,6.16,4.19Z" transform="translate(0 0)"/><path class="cls-1" d="M819.1,352.57c-2.06,1.42-4.27,4.15-6.13,3.93s-3.66-3.25-5.47-5.05c1.82-1.79,3.5-4.78,5.5-5s4,2.52,6.1,4Z" transform="translate(0 0)"/><path class="cls-1" d="M820.75,357.42c1.52,2,3.92,3.87,4.34,6.09.59,3.05-1.66,5.34-5,5.49s-5.68-2-5.34-5.1c.25-2.25,2.47-4.27,3.82-6.4Z" transform="translate(0 0)"/><path class="cls-1" d="M607.2,362.59c2-1.38,3.93-3.61,6.12-3.92,3-.44,5.35,1.72,5.32,5.08s-2.08,5.64-5.25,5.12c-2.22-.36-4.12-2.58-6.17-4Z" transform="translate(0 0)"/><path class="cls-1" d="M451.23,357.7c1.43,2,3.68,3.84,4.08,6a4.2,4.2,0,0,1-5,5.06c-2.13-.46-5-3.07-5.25-5s2.56-4,4-6Z" transform="translate(0 0)"/><path class="cls-1" d="M17.34,357.69c1.44,2,3.69,3.84,4.12,6,.62,3.22-1.81,5.22-5,5.28s-5.7-1.95-5.25-5.11c.3-2.19,2.54-4.11,3.92-6.14Z" transform="translate(0 0)"/><path class="cls-1" d="M313.46,364.93c-2,1.38-3.94,3.55-6.16,3.94-3.2.57-5.34-1.82-5.32-5s2.1-5.67,5.29-5.17c2.21.34,4.12,2.52,6.17,3.87Z" transform="translate(0 0)"/><path class="cls-1" d="M376.84,434.76c1.43,2.05,4,4.14,4,6.15-.05,1.77-2.83,4.44-4.83,4.92a4.23,4.23,0,0,1-5.3-4.84c.3-2.21,2.54-4.16,3.91-6.23Z" transform="translate(0 0)"/><path class="cls-1" d="M90.83,442.18c-2.14,1.29-4.19,3.41-6.46,3.69a4.2,4.2,0,0,1-4.67-5.44c.53-2,3.34-4.64,5.1-4.61,2.06,0,4.09,2.64,6.13,4.13Z" transform="translate(0 0)"/><path class="cls-1" d="M621.53,362.61c2-1.38,4.11-3.91,6.07-3.81,1.8.09,4.5,2.74,5,4.7a4.26,4.26,0,0,1-4.81,5.35c-2.2-.29-4.15-2.46-6.22-3.78C621.54,364.25,621.53,363.43,621.53,362.61Z" transform="translate(0 0)"/><path class="cls-1" d="M360.18,446.83c-1.26-2.12-3.64-4.35-3.45-6.33.17-1.79,2.95-4.32,4.94-4.71a4.28,4.28,0,0,1,5.13,5c-.39,2.2-2.77,4.06-4.26,6.07Z" transform="translate(0 0)"/><path class="cls-1" d="M315.54,362.41c2.08-1.3,4-3.45,6.25-3.71a4.23,4.23,0,0,1,4.79,5.36c-.51,2-3.22,4.55-5,4.64s-4-2.44-6.06-3.82Z" transform="translate(0 0)"/><path class="cls-1" d="M194.41,363.58c-3.44,2.53-5.28,4.84-7.5,5.28a4.29,4.29,0,0,1-5.17-5c.4-2.12,3.07-5,5-5.3C188.6,358.31,190.85,361.09,194.41,363.58Z" transform="translate(0 0)"/><path class="cls-1" d="M518.31,365c-2.06,1.36-4.18,3.86-6.17,3.76-1.79-.08-4.47-2.76-4.94-4.73a4.23,4.23,0,0,1,4.86-5.27c2.21.3,4.16,2.48,6.22,3.82Z" transform="translate(0 0)"/><path class="cls-1" d="M504.25,364.72c-2,1.43-4.06,4-6.05,4s-4.73-2.59-5.21-4.52a4.33,4.33,0,0,1,4.76-5.45c2.24.24,4.28,2.32,6.4,3.57C504.19,363.1,504.22,363.91,504.25,364.72Z" transform="translate(0 0)"/><path class="cls-1" d="M415.32,364.85c-2,1.4-4.1,3.93-6.07,3.86-1.82-.07-4.54-2.66-5.08-4.62a4.28,4.28,0,0,1,4.77-5.42c2.21.21,4.22,2.4,6.32,3.7Z" transform="translate(0 0)"/><path class="cls-1" d="M24.49,362.67c2-1.38,3.9-3.6,6.08-3.95a4.21,4.21,0,0,1,5,5.12c-.43,2-3,4.71-4.83,4.86s-4.12-2.28-6.2-3.58C24.52,364.3,24.51,363.48,24.49,362.67Z" transform="translate(0 0)"/><path class="cls-1" d="M470.43,365c-2.09,1.34-4.25,3.8-6.25,3.68-1.79-.11-4.42-2.83-4.88-4.82a4.24,4.24,0,0,1,5-5.21c2.2.32,4.12,2.6,6.17,4C470.44,363.48,470.43,364.26,470.43,365Z" transform="translate(0 0)"/><path class="cls-1" d="M427,41.86c18.73,13.69,32.86,49,20.67,82.08-11.73,31.83-44.27,55.5-83.54,49.94a76.61,76.61,0,0,1-65.44-68.29c-3.57-33.15,15.8-62.46,36.53-72.69-.1,15.35,4.61,28.54,16.58,38.5A45.79,45.79,0,0,0,383.2,82.18C404.89,81.75,422.82,65.56,427,41.86Zm-61.77,101.8a20,20,0,0,0,20.12-19.84c0-10.47-9.44-19.81-19.87-19.76a19.8,19.8,0,1,0-.25,39.6Z" transform="translate(0 0)"/></g></g></svg>