<svg xmlns="http://www.w3.org/2000/svg" viewBox="0 0 900 100"><defs><style>.cls-1{fill:#fff;}.cls-2{fill:#eeeded;}.cls-2,.cls-3,.cls-4,.cls-5,.cls-6,.cls-7,.cls-8{stroke:#1d1d1b;stroke-miterlimit:10;stroke-width:0.44px;}.cls-3{fill:#7ab82d;}.cls-4{fill:#7ab92d;}.cls-5{fill:#78b82e;}.cls-6{fill:#40bcd2;}.cls-7{fill:#ccde99;}.cls-8{fill:#010101;}.cls-9{fill:#4382c4;}</style></defs><title>3</title><g id="Layer_2" data-name="Layer 2"><g id="Layer_1-2" data-name="Layer 1"><rect class="cls-1" width="900" height="100"/><g id="Layer_2-2" data-name="Layer 2"><g id="Layer_1-2-2" data-name="Layer 1-2"><path class="cls-2" d="M342.24,77.64c.64-9.53,8.22-14.13,14.25-19.79,9.58-9,19.26-17.92,29.7-27.61-9.66,0-18.28-.15-26.88.08-3.62.09-4.17-1-3.34-4.3,1.65-6.74,1.46-6.79,8.57-6.79,13.27,0,26.54.09,39.81-.08,3.23,0,3.55,1,3,3.81a17.92,17.92,0,0,1-6.08,10.7c-12,10.67-23.78,21.63-35.62,32.49-1.11,1-2.49,1.83-3.2,3.83,13.12,0,26-.07,38.88.06,2.69,0,2.52-1.74,2.89-3.33,3.35-14.5,6.84-29,9.92-43.53.73-3.45,2.13-4.39,5.35-4.16s6.6.05,10.38.05l-6.29,26.2C434,37.12,443.77,29.67,453.28,22A11.67,11.67,0,0,1,461.81,19c4.89.28,9.79.17,14.68.23.87,2.22-10,8.7-13.39,12-4.3,3.44-8.83,6.58-13.31,9.75-2.91,2.06-3.23,4.09-1.87,7.17,3.74,8.47,7.5,16.93,11.12,25.45.94,2.2,2.63,4.48.71,7-5.28.72-10.58.12-15.86.32-2.84-.25-3.3-2.67-4.06-4.63-2.32-6-4.76-12-7.05-18-1-2.7-1.91-2.78-4.34-1.21-6.1,3.91-9.72,9-10.55,16.33-.31,2.71.17,6.65-4.15,7.52q-33.21,0-66.38,0c-1.7,0-3.48.43-5.12-.44Z"/><path class="cls-3" d="M611.62,55c-3,5.27-3,11.33-4.62,17-1.65,5.9-3.4,7.58-9.5,7.65-4.89,0-9.79.11-14.69,0-4.51-.13-6-1.89-5.27-6.29.59-3.54,1.7-7,2.39-10.53.38-2,1.45-2.34,3.28-2.42,5.73-.23,5.83-.19,4.52,5.4-1.45,6.19-1.42,5.79,4.65,6.32,5,.43,6.81-1.31,7.72-6,1.89-9.84,2.15-9.79-7.84-9.79H581.82c.1-4.52,2.42-6.8,6.26-7.37,6.12-.89,12.29-.6,18.43-.18,2.35.15,3.88,1.65,5.12,3.49Z"/><path class="cls-4" d="M492.93,80.34l-10.3.13c-1.46,0-2.9.08-3-2,4.21-14.68,8.33-29.39,12.7-44,1-3.22.94-4.32-3-4.2-8.94.26-14.53,0-23.48-.07l14-11c17.05,0,30.73,0,47.78,0,3,0,3.85.6,2.78,3.77-2.41,7.18-2.23,7.24-9.78,7.26-12.63,0-12.63,0-16.2,11.87Z"/><path class="cls-3" d="M512.18,79.6c1.28-5.79,2.55-11.12,3.6-16.48.43-2.15,1.52-2.83,3.59-2.78,4.74.08,9.48-.06,14.22.08,1.2,0,3.82-1.12,3.19,1.76-.48,2.22.7,5.79-3.42,6-2.52.12-5.06.11-7.58,0-1.9-.08-3.25.53-3.13,2.52s1.93,1.15,3,1.17c5.66.09,11.33,0,17,0-.77,7.7-.77,7.7-8,7.7Z"/><path class="cls-3" d="M558.87,79.55c-2.84,0-5.69.16-8.52,0-4.15-.28-5.66-2.27-4.84-6.23.73-3.52,1.76-7,2.42-10.52.32-1.74,1.05-2.28,2.75-2.45,5.69-.58,6.14-.16,5,5.47-.25,1.23-.62,2.43-.83,3.66-.13.73-.36,1.55.37,2.15,1.39,1.17,11,.08,11.73-1.46,1.82-4.08,5.37-2,7.76-1.67,2.16.34.24,2.87,0,4.4-.69,4.69-3.78,6.61-8.26,6.7-2.53.05-5.06,0-7.58,0Z"/><path class="cls-5" d="M573.31,60.46c-1.5-.23-3.91.87-3.56-2.52.23-2.31-1.79-1.7-3-1.72-4.57-.07-9.15-.15-13.71,0-3.61.12-3.58-1.41-2.26-4,1.24-2.39,3.45-3.26,5.81-3.54a87.35,87.35,0,0,1,17.93-.08c2.94.26,5,1.83,4.67,5.29C578.61,59.53,577.8,60.5,573.31,60.46Z"/><path class="cls-3" d="M533.84,48.35c3.62,0,7.25-.09,10.88,0,1.25.05,3.91-1,3.17,1.78-.56,2.08.62,5.79-3.1,5.91-8.35.25-16.71.08-25.07.08-1.28,0-2.58-.59-1.82-1.85,1.19-2-.82-6,3.63-6C525.63,48.37,529.73,48.35,533.84,48.35Z"/></g></g><polygon class="cls-6" points="669.98 28.6 631.96 18.99 631.96 63.26 641.24 65.82 641.24 35.86 669.98 28.6"/><polygon class="cls-7" points="679.36 26.22 669.98 28.6 670.08 28.63 670.08 73.05 679.36 70.5 679.36 26.22"/><polygon class="cls-8" points="641.24 81.01 668.79 73.42 641.24 65.82 641.24 81.01"/><path class="cls-6" d="M713.56,39.71a2.06,2.06,0,0,1-.6.73,1.58,1.58,0,0,1-.8.2,2.06,2.06,0,0,1-1-.36l-1.35-.8a14,14,0,0,0-1.83-.8,7.92,7.92,0,0,0-2.46-.36,7.33,7.33,0,0,0-2.25.31,4.69,4.69,0,0,0-1.6.85,3.46,3.46,0,0,0-1,1.32,4.44,4.44,0,0,0-.31,1.68,3,3,0,0,0,.64,1.94,5.58,5.58,0,0,0,1.74,1.32,16.22,16.22,0,0,0,2.45,1c.93.28,1.86.59,2.82.93s1.89.72,2.82,1.14a9.25,9.25,0,0,1,2.45,1.65A7.43,7.43,0,0,1,715,52.89a8.48,8.48,0,0,1,.65,3.52,11.33,11.33,0,0,1-.78,4.21A9.42,9.42,0,0,1,712.63,64a10.44,10.44,0,0,1-3.62,2.3,13.06,13.06,0,0,1-4.89.83A16.2,16.2,0,0,1,698.05,66a18.29,18.29,0,0,1-2.64-1.37,13.38,13.38,0,0,1-2.19-1.78l1.78-3a2.55,2.55,0,0,1,.62-.55,1.4,1.4,0,0,1,.8-.2,2.17,2.17,0,0,1,1.24.46c.44.31,1,.67,1.58,1a11.54,11.54,0,0,0,2.14,1,8.41,8.41,0,0,0,3,.47,6,6,0,0,0,4.08-1.25,4.5,4.5,0,0,0,1.45-3.59,3.35,3.35,0,0,0-.65-2.14,5.43,5.43,0,0,0-1.73-1.4,12.9,12.9,0,0,0-2.45-.95c-.93-.26-1.86-.55-2.79-.86a21.74,21.74,0,0,1-2.8-1.11A8.89,8.89,0,0,1,697,49.12a7.8,7.8,0,0,1-1.73-2.58,9.79,9.79,0,0,1-.65-3.83,9,9,0,0,1,.72-3.54,9.26,9.26,0,0,1,2.12-3.05A10.7,10.7,0,0,1,700.87,34a12.1,12.1,0,0,1,4.6-.81,15.31,15.31,0,0,1,5.42.94,12.63,12.63,0,0,1,4.22,2.55Z"/><path class="cls-6" d="M720.07,66.85V32.76h5.66v13.1a12.76,12.76,0,0,1,3-2.11,8.66,8.66,0,0,1,3.88-.81,8.27,8.27,0,0,1,3.41.65,6.77,6.77,0,0,1,2.48,1.84,8.36,8.36,0,0,1,1.53,2.81,12.46,12.46,0,0,1,.51,3.62v15H734.9v-15a4.93,4.93,0,0,0-1-3.33,3.75,3.75,0,0,0-3-1.19,6.09,6.09,0,0,0-2.77.67,10,10,0,0,0-2.43,1.81v17Z"/><path class="cls-6" d="M756.2,42.94a12.76,12.76,0,0,1,4.78.86,10.63,10.63,0,0,1,3.67,2.4A10.82,10.82,0,0,1,767,50a15.63,15.63,0,0,1,0,10,10.51,10.51,0,0,1-2.35,3.83A10,10,0,0,1,761,66.31a12.76,12.76,0,0,1-4.78.85,13,13,0,0,1-4.81-.85,10.12,10.12,0,0,1-3.67-2.43,10.78,10.78,0,0,1-2.35-3.83,14.1,14.1,0,0,1-.83-5,14.62,14.62,0,0,1,.83-5,10.82,10.82,0,0,1,2.35-3.8,10.63,10.63,0,0,1,3.67-2.4A13,13,0,0,1,756.2,42.94Zm0,19.9a4.94,4.94,0,0,0,4.34-2A10,10,0,0,0,762,55.09a9.91,9.91,0,0,0-1.42-5.81,5.76,5.76,0,0,0-8.73,0,9.91,9.91,0,0,0-1.43,5.79,9.72,9.72,0,0,0,1.43,5.76A5,5,0,0,0,756.2,62.84Z"/><path class="cls-6" d="M769.38,43.33h4.5a1.88,1.88,0,0,1,1.08.31,1.3,1.3,0,0,1,.55.75L778.87,57c.18.7.33,1.37.44,2s.23,1.32.33,2c.18-.64.34-1.32.54-2s.39-1.32.62-2l3.91-12.61a1.42,1.42,0,0,1,.54-.75,1.53,1.53,0,0,1,1-.31h2.5a1.69,1.69,0,0,1,1,.31,1.33,1.33,0,0,1,.54.75l3.85,12.84c.21.65.39,1.3.54,1.92l.47,1.86c.1-.65.23-1.32.36-2s.28-1.34.49-2l3.49-12.56a1.24,1.24,0,0,1,.54-.75,1.73,1.73,0,0,1,1-.31h4.29l-7.44,23.52h-4.58c-.49,0-.85-.34-1.06-1L788,52.25c-.12-.44-.25-.88-.38-1.35s-.21-.9-.29-1.34c-.1.47-.18.91-.31,1.37s-.23.9-.36,1.37l-4.29,13.57a1.24,1.24,0,0,1-1.24,1H776.8Z"/><path class="cls-7" d="M826.24,54.63c.23.51.44,1.06.65,1.6.2-.54.44-1.09.67-1.63a15.37,15.37,0,0,1,.72-1.52L838.1,34.7a2.52,2.52,0,0,1,.39-.54,1.47,1.47,0,0,1,.44-.31,1.72,1.72,0,0,1,.54-.11c.21,0,.44,0,.73,0h4.65V66.9h-5.43V45.48c0-.39,0-.83,0-1.32s0-1,.1-1.45l-10,18.82a2.57,2.57,0,0,1-.9,1,2.31,2.31,0,0,1-1.3.37h-.85a2.3,2.3,0,0,1-1.29-.37,2.59,2.59,0,0,1-.9-1l-10.16-18.9c0,.52.1,1,.13,1.48s0,.93,0,1.34V66.88h-5.42V33.69h4.65a5.24,5.24,0,0,1,.72,0,2.48,2.48,0,0,1,.54.1,1,1,0,0,1,.44.31,2.52,2.52,0,0,1,.39.54l9.9,18.43A13.58,13.58,0,0,1,826.24,54.63Z"/><path class="cls-7" d="M861,42.94a11,11,0,0,1,4.08.73,8.83,8.83,0,0,1,3.23,2.07,9.2,9.2,0,0,1,2.12,3.36,12.28,12.28,0,0,1,.75,4.52,10,10,0,0,1,0,1.06,1.47,1.47,0,0,1-.21.67.81.81,0,0,1-.41.34,1.78,1.78,0,0,1-.65.1H855.26a8.24,8.24,0,0,0,1.94,5.32,6.08,6.08,0,0,0,4.5,1.71,8,8,0,0,0,2.38-.31,8.75,8.75,0,0,0,1.73-.72c.49-.26.93-.5,1.32-.73a2.2,2.2,0,0,1,1.08-.31,1.36,1.36,0,0,1,.6.13,1.49,1.49,0,0,1,.44.39l1.65,2.07a9,9,0,0,1-2.12,1.83,12.43,12.43,0,0,1-5,1.81,17.42,17.42,0,0,1-2.56.18,12.53,12.53,0,0,1-4.57-.83,10.17,10.17,0,0,1-3.67-2.4,11.33,11.33,0,0,1-2.46-4,15.5,15.5,0,0,1-.9-5.46,13.16,13.16,0,0,1,.77-4.52,10.88,10.88,0,0,1,2.25-3.7,10.13,10.13,0,0,1,3.57-2.48A12.76,12.76,0,0,1,861,42.94Zm.1,4.09a5.23,5.23,0,0,0-3.87,1.39,6.9,6.9,0,0,0-1.79,4H866a6.63,6.63,0,0,0-.31-2.06,5.05,5.05,0,0,0-.93-1.71,4.3,4.3,0,0,0-1.55-1.16A4.83,4.83,0,0,0,861.05,47Z"/><g id="Layer_2-3" data-name="Layer 2"><g id="Layer_1-2-3" data-name="Layer 1-2"><path class="cls-9" d="M184.52,71.22c0,3.08,0,6.16,0,9.24,0,1-.27,1.31-1.26,1.29q-5-.07-10.08,0c-1,0-1.26-.32-1.26-1.27,0-5.18,0-10.37,0-15.54a13,13,0,0,0-.21-2.64c-.56-2.82-2.47-4.47-4.85-4.3a5.3,5.3,0,0,0-4.6,5c-.29,4.15,2.88,6.62,6.78,5.22.88-.31.93,0,.93.69,0,4.11,0,8.21,0,12.33,0,.79-.32,1-1.05,1.12a16.54,16.54,0,0,1-14.18-5.15c-7.49-7.66-7.71-24.07,3.94-31.29,8.84-5.48,21.29-1,24.48,8.91a28.74,28.74,0,0,1,1.31,8.69c0,2.56,0,5.13,0,7.69Z"/><path class="cls-9" d="M69,68.93c.17-3.69-.35-8,.45-12.35,1.4-7.56,7.74-13,15-12.91A14.41,14.41,0,0,1,98,54.67a28.38,28.38,0,0,1,.89,7c0,6.21,0,12.41,0,18.61,0,1.12-.32,1.43-1.4,1.4q-4.89-.09-9.8,0c-1.09,0-1.44-.28-1.43-1.4.06-6.44,0-12.88,0-19.3A5.63,5.63,0,0,0,86.1,59a2.1,2.1,0,0,0-2.26-1.49,2,2,0,0,0-2,1.75,13.35,13.35,0,0,0-.2,2.36c0,6.25,0,12.5,0,18.75,0,1.09-.3,1.44-1.4,1.42-3.31-.07-6.62-.06-9.94,0-1,0-1.27-.3-1.26-1.27C69,76.84,69,73.2,69,68.93Z"/><path class="cls-9" d="M238.32,65.34c-2.71,0-5.41-.06-8.12,0-1.22,0-1.72-.41-1.74-1.56,0-.28-.08-.56-.1-.84-.25-3.78.15-4.22,3.88-4.22h1.68c1.51,0,1.55-.07,1.06-1.45a4.12,4.12,0,0,0-5.23-2.53,4,4,0,0,0-1.41.84,6,6,0,0,0-1.74,2.51,12.17,12.17,0,0,0,.25,9.53c1.59,3.5,5.11,3.82,7.14,1.55.57-.65.88-.37,1.27.16,2,2.7,4,5.4,6,8.06.6.78,0,1-.42,1.4a16.48,16.48,0,0,1-22.06-1.22c-8.06-8-7.69-22.18.77-29.76,8.75-7.84,22.55-4.34,26.9,6.79A23.32,23.32,0,0,1,248,64.09c0,1-.43,1.25-1.35,1.23-2.76,0-5.51,0-8.27,0Z"/><path class="cls-9" d="M190.49,47.92c0-5.27,0-10.55,0-15.82,0-1.12.31-1.43,1.4-1.4q5,.09,9.94,0c1,0,1.27.32,1.26,1.29-.05,3.92,0,7.84,0,11.76,0,1,.28,1.34,1.27,1.28,1.16-.08,2.33,0,3.5,0,.65,0,.91.25.91.9q0,6.45,0,12.89c0,.75-.35,1-1,1-1.21,0-2.43,0-3.64,0-.81,0-1.09.3-1,1.09s.13,1.76.28,2.63c.48,2.65,1.68,3.81,4.4,4,1,.08,1.2.45,1.19,1.37q-.07,6.09,0,12.18c0,1-.28,1.25-1.26,1.27-8.09.12-15.11-6-16.64-14.54a33.74,33.74,0,0,1-.56-6.26c0-4.53,0-9.05,0-13.58Z"/><path class="cls-9" d="M123.06,52.41c0,2,0,3.92,0,5.88,0,1.07-.25,1.54-1.4,1.45s-2.24,0-3.36,0c-.67,0-.95.28-.88.93a27.92,27.92,0,0,0,.41,3.18c.56,2.4,1.71,3.44,4.14,3.65,1,.08,1.34.38,1.32,1.42q-.09,5.94,0,11.9c0,1.13-.28,1.52-1.47,1.52A16.9,16.9,0,0,1,105.9,69.7a29.78,29.78,0,0,1-1-8c0-9.85,0-19.69,0-29.54,0-1.12.31-1.44,1.41-1.42q5,.09,9.94,0c1,0,1.27.34,1.26,1.29,0,3.83,0,7.66,0,11.49,0,1.27.39,1.65,1.6,1.54.92-.09,1.86,0,2.8,0s1.32.28,1.29,1.26c-.06,2.06,0,4.11,0,6.17Z"/><path class="cls-9" d="M26,49.1c0-5.6.05-11.21,0-16.81,0-1.33.42-1.62,1.65-1.6,3.46.08,6.91.08,10.37,0,1.22,0,1.59.31,1.58,1.56,0,9.25,0,18.49,0,27.74,0,1,0,2,.14,3.08.24,2.7,1.27,3.75,4,3.8,1.36,0,1.7.45,1.67,1.77-.1,3.93-.08,7.85,0,11.77,0,1.16-.38,1.37-1.44,1.37-3.48,0-6.92-.08-10.07-1.83-4.57-2.54-6.7-6.7-7.56-11.66-.59-3.41-.24-6.82-.3-10.23C26,55.07,26,52.09,26,49.1Z"/><path class="cls-9" d="M253.05,56.25c0-8,0-16,0-24.06,0-1.14.28-1.53,1.47-1.5,3.22.08,6.45.06,9.66,0,1,0,1.46.2,1.45,1.37q0,24.13,0,48.26c0,1.09-.28,1.45-1.4,1.42q-4.89-.1-9.8,0c-1.14,0-1.4-.37-1.39-1.44C253.07,72.29,253.05,64.28,253.05,56.25Z"/><path class="cls-9" d="M141.82,71.92c0,2.85,0,5.7,0,8.54,0,1-.28,1.3-1.26,1.28-3.36,0-6.73,0-10.09,0-.92,0-1.2-.28-1.19-1.2,0-6.81-.05-13.63,0-20.43.09-5.23,1.58-10,5.74-13.45,3.43-2.87,7.46-3.39,11.75-2.71.65.11.8.5.8,1.08q0,6.45,0,12.88c0,.81-.23.91-1,.65-2.31-.81-3.79,0-4.45,2.35a12.49,12.49,0,0,0-.39,3.33Q141.82,68.08,141.82,71.92Z"/><path class="cls-9" d="M280.75,81.72c-1.87,0-3.74,0-5.61,0-.91,0-1.28-.28-1.56-1.15Q270,69.34,266.33,58.11a1.86,1.86,0,0,1,.09-1.46q2.52-5.61,5-11.25a1.36,1.36,0,0,1,1.46-1q5.39.06,10.77,0c1,0,1.21.21.76,1.16-1.71,3.68-3.36,7.39-5.05,11.06a3.08,3.08,0,0,0-.12,2.65c2.76,7,5.44,14.08,8.19,21.1.42,1.07.28,1.38-.91,1.33C284.57,81.66,282.66,81.72,280.75,81.72Z"/><path class="cls-9" d="M61.61,63.2c0,5.73,0,11.47,0,17.2,0,1-.28,1.37-1.33,1.35-3.36-.06-6.73,0-10.07,0-.91,0-1.21-.28-1.2-1.2q0-17.41,0-34.82c0-1,.26-1.31,1.26-1.29q5,.08,10.08,0c1,0,1.28.3,1.27,1.28C61.59,51.54,61.61,57.37,61.61,63.2Z"/><path class="cls-9" d="M71.41,27.15a2,2,0,0,1-1.27,2,1.85,1.85,0,0,1-2.37-.64A17.46,17.46,0,0,0,64,24.81a14.8,14.8,0,0,0-19.18,1.81c-.56.56-1.05,1.18-1.6,1.75-1,1.06-2,1.22-3,.49a2.32,2.32,0,0,1-.43-3.24h0a19.32,19.32,0,0,1,5.7-5.29A19,19,0,0,1,70.64,25.1,3.35,3.35,0,0,1,71.41,27.15Z"/><path class="cls-9" d="M55.05,26.87A15.33,15.33,0,0,1,67,32.54a3.28,3.28,0,0,1,.72,1.5,1.51,1.51,0,0,1-.81,1.76,1.37,1.37,0,0,1-1.78-.33A23.9,23.9,0,0,0,62.63,33,11.52,11.52,0,0,0,47,34.08c-.32.33-.63.69-.94,1-.68.76-1.48,1.25-2.41.47A1.72,1.72,0,0,1,43.52,33a14.87,14.87,0,0,1,9.53-5.85C53.83,27,54.62,26.92,55.05,26.87Z"/><path class="cls-9" d="M56,35.86a10,10,0,0,1,7.47,4c.53.65.94,1.4.11,2.08s-1.34,0-1.85-.59c-3.82-4-8.72-4-12.63-.07-.46.46-.84,1.31-1.7.78s-.77-1.33-.18-2.12A10.9,10.9,0,0,1,56,35.86Z"/></g></g></g></g></svg>