<?xml version="1.0" encoding="utf-8"?>
<!-- Generator: Adobe Illustrator 24.0.2, SVG Export Plug-In . SVG Version: 6.00 Build 0)  -->
<svg version="1.1" id="Capa_1" xmlns="http://www.w3.org/2000/svg" xmlns:xlink="http://www.w3.org/1999/xlink" x="0px" y="0px"
	 viewBox="0 0 512 512" style="enable-background:new 0 0 512 512;" xml:space="preserve">
<style type="text/css">
	.st0{fill:#E62445;}
</style>
<g>
	<path class="st0" d="M474.4,54.2H342.9c-7.6-14.6-18.8-27.3-33.1-36.7c-3-2-6.9-2.2-10.1-0.4c-3.2,1.7-5.2,5.1-5.2,8.7v28.5h-76.9
		V25.7c0-3.6-2-7-5.2-8.7c-3.2-1.7-7.1-1.6-10.1,0.4c-14.3,9.4-25.5,22.1-33.1,36.7H37.6C16.9,54.2,0,71.1,0,91.8v27.8
		c0,4.2,3.4,7.5,7.5,7.5s7.5-3.4,7.5-7.5V91.8c0-12.4,10.1-22.6,22.6-22.6h125.3c-3.1,9.6-4.7,19.7-4.7,30.1
		c0,25.3,9.8,49.3,27.4,67.6c7.4,7.7,15.8,14,25,18.8v124.9H15V154.7c0-4.2-3.4-7.5-7.5-7.5S0,150.5,0,154.7v198.5
		c0,20.7,16.9,37.6,37.6,37.6h162.5V433h-56.9c-14.1,0-25.6,11.5-25.6,25.6v12c0,14.1,11.5,25.6,25.6,25.6h225.7
		c14.1,0,25.6-11.5,25.6-25.6v-12c0-14.1-11.5-25.6-25.6-25.6h-56.9v-42.1H388c4.2,0,7.5-3.4,7.5-7.5s-3.4-7.5-7.5-7.5H37.6
		c-12.4,0-22.6-10.1-22.6-22.6v-27.6H497v27.6c0,12.4-10.1,22.6-22.6,22.6h-51.3c-4.2,0-7.5,3.4-7.5,7.5s3.4,7.5,7.5,7.5h51.3
		c20.7,0,37.6-16.9,37.6-37.6V91.8C512,71.1,495.1,54.2,474.4,54.2z M379.4,458.6v12c0,5.8-4.7,10.5-10.5,10.5H143.2
		c-5.8,0-10.5-4.7-10.5-10.5v-12c0-5.8,4.7-10.5,10.5-10.5h225.7C374.6,448,379.4,452.7,379.4,458.6z M296.9,433h-81.7v-42.1h81.7
		V433z M294.5,69.2V104c0,0.3-0.1,0.5-0.3,0.6l-37.8,22.8c-0.2,0.1-0.5,0.1-0.7,0l-37.8-22.8c-0.2-0.1-0.3-0.3-0.3-0.6V69.2H294.5z
		 M173.3,99.3c0-24.6,10.7-47.6,29.2-63.2v68c0,5.5,2.9,10.7,7.6,13.5l37.8,22.7c5,3,11.2,3,16.3,0l37.7-22.7
		c4.7-2.8,7.6-8,7.6-13.5V36c18.5,15.6,29.2,38.6,29.2,63.1c0,22.7-9,43.9-25.4,59.6c-6.7,6.4-14.2,11.6-22.4,15.4
		c-0.3,0.1-0.5,0.2-0.8,0.4c-11.6,5.3-24.3,7.8-37.5,7.3C209,180.2,173.3,143.1,173.3,99.3L173.3,99.3z M225.7,192.1
		c8.5,2.8,17.4,4.4,26.5,4.8c1.3,0.1,2.6,0.1,3.9,0.1c10.4,0,20.6-1.6,30.3-4.8v118.5h-60.7V192.1z M301.4,310.6V185.8
		c8.1-4.3,15.6-9.7,22.4-16.2c19.3-18.6,30-43.6,30-70.5c0-10.3-1.6-20.4-4.7-29.9h125.3c12.4,0,22.6,10.1,22.6,22.6v218.8H301.4z"
		/>
</g>
</svg>
