<?xml version="1.0"?>
<svg xmlns="http://www.w3.org/2000/svg" xmlns:xlink="http://www.w3.org/1999/xlink" xmlns:svgjs="http://svgjs.com/svgjs" version="1.1" width="512" height="512" x="0" y="0" viewBox="0 0 64 64" style="enable-background:new 0 0 512 512" xml:space="preserve"><g><g xmlns="http://www.w3.org/2000/svg"><path d="m56.747 23.664-1.494-1.328-2.366 2.662c.486.475.904 1.02 1.237 1.618z" fill="#e62445" data-original="#000000" style=""/><path d="m48 37c3.859 0 7-3.141 7-7 0-1.227-.32-2.38-.877-3.384l-6.08 6.841-3.75-3.75 1.414-1.414 2.25 2.25 4.93-5.545c-1.263-1.234-2.987-1.998-4.887-1.998-3.519 0-6.432 2.614-6.92 6h-10.08v2h10.08c.488 3.386 3.401 6 6.92 6z" fill="#e62445" data-original="#000000" style=""/><path d="m49.467 7.628c.286-.45.692-.826 1.192-1.076l3.341-1.67 3.342 1.671c.5.25.906.626 1.192 1.076l.116-.218c.229-.432.35-.92.35-1.409 0-1.655-1.347-3.002-3.002-3.002h-3.996c-1.655 0-3.002 1.347-3.002 3.002 0 .489.121.978.352 1.41z" fill="#e62445" data-original="#000000" style=""/><path d="m58.877 17.493-1.101-.184c-1.365-.227-2.496-1.139-3.024-2.386-.247.039-.494.077-.752.077-.257 0-.505-.038-.752-.076-.529 1.247-1.66 2.158-3.025 2.386l-1.101.184c-.881.146-1.59.729-1.92 1.507h13.594c-.329-.778-1.038-1.361-1.919-1.508z" fill="#e62445" data-original="#000000" style=""/><path d="m54 7.118-2.447 1.224c-.341.17-.553.512-.553.894v.764c0 1.654 1.346 3 3 3s3-1.346 3-3v-.764c0-.382-.212-.725-.553-.895z" fill="#e62445" data-original="#000000" style=""/><path d="m25 35h-18v22h2v-20h19.457c-.701-1.205-2.004-2-3.457-2z" fill="#e62445" data-original="#000000" style=""/><path d="m5 57v-21.444c-1.19.694-2 1.97-2 3.444v18c0 2.206 1.794 4 4 4h15c0-.732.212-1.409.556-2h-15.556c-1.103 0-2-.897-2-2z" fill="#e62445" data-original="#000000" style=""/><path d="m14 21c1.654 0 3-1.346 3-3v-2c0-.552-.448-1-1-1s-1 .448-1 1v3h-2v-3c0-1.654 1.346-3 3-3s3 1.346 3 3v2c0 2.757-2.243 5-5 5-.865 0-1.68-.221-2.391-.609.85 1.553 2.499 2.609 4.391 2.609 2.757 0 5-2.243 5-5v-4c0-2.757-2.243-5-5-5s-5 2.243-5 5v2c0 1.654 1.346 3 3 3z" fill="#e62445" data-original="#000000" style=""/><path d="m21 3h2v2h-2z" fill="#e62445" data-original="#000000" style=""/><path d="m27 39c-.552 0-1 .448-1 1s.448 1 1 1h6v2h-8c-.552 0-1 .448-1 1s.448 1 1 1h8v2h-10c-.552 0-1 .448-1 1s.448 1 1 1h10v2h-16c-.552 0-1 .448-1 1s.448 1 1 1h15c1.654 0 3 1.346 3 3s-1.346 3-3 3h-6c-1.103 0-2 .897-2 2h9.597c3.747 0 7.418-1.249 10.403-3.507v-15.905c-2.999-1.688-6.383-2.588-9.831-2.588z" fill="#e62445" data-original="#000000" style=""/><path d="m46 42h15v15h-15z" fill="#e62445" data-original="#000000" style=""/><path d="m7 29h18.002l-.002-22h-18zm2-13c0-3.859 3.141-7 7-7s7 3.141 7 7v4c0 3.859-3.141 7-7 7s-7-3.141-7-7z" fill="#e62445" data-original="#000000" style=""/><path d="m9 3h2v2h-2z" fill="#e62445" data-original="#000000" style=""/><path d="m7 33h18c2.206 0 4-1.794 4-4v-22c0-2.206-1.794-4-4-4v2c1.103 0 2 .897 2 2v22c0 1.103-.897 2-2 2h-18c-1.103 0-2-.897-2-2v-22c0-1.103.897-2 2-2v-2c-2.206 0-4 1.794-4 4v22c0 2.206 1.794 4 4 4z" fill="#e62445" data-original="#000000" style=""/><path d="m24.22 41.116c-.139-.346-.22-.721-.22-1.116 0-.352.072-.686.184-1h-13.184v18h21c.552 0 1-.448 1-1s-.448-1-1-1h-15c-1.654 0-3-1.346-3-3s1.346-3 3-3h3.184c-.112-.314-.184-.648-.184-1 0-1.383.945-2.539 2.22-2.884-.139-.346-.22-.721-.22-1.116 0-1.383.945-2.539 2.22-2.884z" fill="#e62445" data-original="#000000" style=""/><path d="m13 3h2v2h-2z" fill="#e62445" data-original="#000000" style=""/><path d="m17 3h2v2h-2z" fill="#e62445" data-original="#000000" style=""/><path d="m31.101 11h15.899v2h-15.899z" fill="#e62445" data-original="#000000" style=""/></g></g></svg>
