<?xml version="1.0"?>
<svg xmlns="http://www.w3.org/2000/svg" xmlns:xlink="http://www.w3.org/1999/xlink" xmlns:svgjs="http://svgjs.com/svgjs" version="1.1" width="512" height="512" x="0" y="0" viewBox="0 0 512.034 512.034" style="enable-background:new 0 0 512 512" xml:space="preserve"><g><g xmlns="http://www.w3.org/2000/svg"><path d="m271.017 372.017h82.52l-16.661-50h-65.859z" fill="#e62445" data-original="#000000" style=""/><path d="m241.017 322.017h-65.86l-16.661 50h82.521z" fill="#e62445" data-original="#000000" style=""/><path d="m241.017 242.017h-39.19l-16.67 50h55.86z" fill="#e62445" data-original="#000000" style=""/><path d="m123.566 248.647-29.15 43.37h59.12l16.67-50h-34.19c-4.999 0-9.659 2.49-12.45 6.63z" fill="#e62445" data-original="#000000" style=""/><path d="m2.566 428.647c-6.68 9.945.457 23.37 12.45 23.37h85.19l16.66-50h-96.4z" fill="#e62445" data-original="#000000" style=""/><path d="m271.017 242.017v50h55.859l-16.669-50z" fill="#e62445" data-original="#000000" style=""/><path d="m417.616 292.017-29.15-43.37c-2.79-4.14-7.45-6.63-12.45-6.63h-34.19l16.67 50z" fill="#e62445" data-original="#000000" style=""/><path d="m363.537 402.017h-92.52v50h109.19z" fill="#e62445" data-original="#000000" style=""/><path d="m148.496 402.017-16.669 50h109.19v-50z" fill="#e62445" data-original="#000000" style=""/><path d="m437.787 322.017h-69.291l16.671 50h86.23z" fill="#e62445" data-original="#000000" style=""/><path d="m509.467 428.647-17.9-26.63h-96.4l16.66 50h85.19c11.977 0 19.138-13.413 12.45-23.37z" fill="#e62445" data-original="#000000" style=""/><path d="m74.246 322.017-33.61 50h86.23l16.671-50z" fill="#e62445" data-original="#000000" style=""/><path d="m241.017 452.017v30h-45c-8.284 0-15 6.716-15 15s6.716 15 15 15h120c8.284 0 15-6.716 15-15s-6.716-15-15-15h-45v-30z" fill="#e62445" data-original="#000000" style=""/><path d="m166.017 120.017h16.509c1.949 9.562 5.731 18.46 10.948 26.33l-11.704 11.703c-5.858 5.858-5.858 15.355 0 21.213 5.857 5.858 15.355 5.859 21.213 0l11.704-11.704c7.869 5.218 16.768 9 26.33 10.948v16.509c0 8.284 6.716 15 15 15s15-6.716 15-15v-16.509c9.561-1.949 18.46-5.731 26.33-10.948l11.704 11.704c5.857 5.858 15.355 5.859 21.213 0 5.858-5.858 5.858-15.355 0-21.213l-11.704-11.704c5.218-7.869 9-16.768 10.948-26.33h16.509c8.284 0 15-6.716 15-15s-6.716-15-15-15h-16.509c-1.949-9.562-5.731-18.46-10.948-26.33l11.704-11.704c5.858-5.858 5.858-15.355 0-21.213-5.857-5.858-15.355-5.858-21.213 0l-11.704 11.704c-7.869-5.218-16.768-9-26.33-10.948v-16.508c0-8.284-6.716-15-15-15s-15 6.716-15 15v16.509c-9.561 1.949-18.46 5.731-26.33 10.948l-11.704-11.704c-5.857-5.858-15.355-5.858-21.213 0s-5.858 15.355 0 21.213l11.704 11.704c-5.218 7.869-9 16.768-10.948 26.33h-16.509c-8.284 0-15 6.716-15 15s6.715 15 15 15z" fill="#e62445" data-original="#000000" style=""/><path d="m52.725 150.434 60-30c7.41-3.705 10.413-12.715 6.708-20.125s-12.716-10.414-20.125-6.708l-60 30c-7.41 3.705-10.413 12.715-6.708 20.125 3.706 7.41 12.717 10.412 20.125 6.708z" fill="#e62445" data-original="#000000" style=""/><path d="m56.623 267.624 90-90c5.858-5.858 5.858-15.355 0-21.213-5.857-5.858-15.355-5.858-21.213 0l-90 90c-5.858 5.858-5.858 15.355 0 21.213 5.857 5.857 15.355 5.858 21.213 0z" fill="#e62445" data-original="#000000" style=""/><path d="m399.309 120.434 60 30c7.424 3.712 16.427.687 20.125-6.708 3.705-7.41.701-16.419-6.708-20.125l-60-30c-7.408-3.705-16.42-.701-20.125 6.708s-.702 16.42 6.708 20.125z" fill="#e62445" data-original="#000000" style=""/><path d="m455.41 267.624c5.857 5.858 15.355 5.859 21.213 0 5.858-5.858 5.858-15.355 0-21.213l-90-90c-5.857-5.858-15.355-5.858-21.213 0s-5.858 15.355 0 21.213z" fill="#e62445" data-original="#000000" style=""/></g></g></svg>
