<?xml version="1.0"?>
<svg xmlns="http://www.w3.org/2000/svg" xmlns:xlink="http://www.w3.org/1999/xlink" xmlns:svgjs="http://svgjs.com/svgjs" version="1.1" width="512" height="512" x="0" y="0" viewBox="0 0 64 64" style="enable-background:new 0 0 512 512" xml:space="preserve" class=""><g><g xmlns="http://www.w3.org/2000/svg"><path d="m46 34h3.674l-1.636 5.725c-.13.456.078.941.498 1.161.148.077.306.114.464.114.292 0 .579-.128.774-.367l9-11c.245-.299.295-.712.13-1.062s-.518-.571-.904-.571h-3.234l2.091-3.485c.186-.309.19-.694.013-1.007-.177-.314-.51-.508-.87-.508h-5c-.363 0-.698.197-.874.514l-5 9c-.172.31-.167.688.012.993.18.305.508.493.862.493zm5.588-9h2.646l-2.091 3.485c-.186.309-.19.694-.013 1.007.177.314.51.508.87.508h2.89l-4.598 5.62.67-2.345c.086-.302.026-.626-.163-.877s-.485-.398-.799-.398h-3.3z" fill="#e62445" data-original="#000000" style="" class=""/><path d="m62 19h-1v-3c0-.552-.448-1-1-1h-4c-.552 0-1 .448-1 1v3h-6v-3c0-.552-.448-1-1-1h-4c-.552 0-1 .448-1 1v3h-1c-.552 0-1 .448-1 1v11h-8v-14c0-.552-.448-1-1-1h-5v-14c0-.552-.448-1-1-1h-24c-.552 0-1 .448-1 1v18c0 .552.448 1 1 1h7.382l-3.276 6.553c-.155.31-.138.678.044.973.182.294.503.474.85.474h14c.347 0 .668-.18.851-.474.182-.295.199-.663.044-.973l-3.277-6.553h7.382c.552 0 1-.448 1-1v-2h4v28h-4v-10c0-.552-.448-1-1-1h-24c-.552 0-1 .448-1 1v18c0 .552.448 1 1 1h7.382l-3.276 6.553c-.155.31-.138.678.044.973.182.294.503.474.85.474h14c.347 0 .668-.18.851-.474.182-.295.199-.663.044-.973l-3.277-6.553h7.382c.552 0 1-.448 1-1v-6h5c.552 0 1-.448 1-1v-14h8v11c0 .552.448 1 1 1h1v3c0 .552.448 1 1 1h4c.552 0 1-.448 1-1v-3h6v3c0 .552.448 1 1 1h4c.552 0 1-.448 1-1v-3h1c.552 0 1-.448 1-1v-24c0-.552-.448-1-1-1zm-53-10h4v4h-4zm-2 4h-4v-4h4zm6-6h-4v-4h4zm2-4h4v4h-4zm-2 12v4h-4v-4zm2 0h4v4h-4zm0-2v-4h4v4zm6-4h4v4h-4zm4-2h-4v-4h4zm-18-4v4h-4v-4zm-4 12h4v4h-4zm16.382 12h-10.764l3-6h4.764zm1.618-8v-4h4v4zm-12 24h4v4h-4zm-2 4h-4v-4h4zm6-6h-4v-4h4zm2-4h4v4h-4zm-2 12v4h-4v-4zm2 0h4v4h-4zm0-2v-4h4v4zm6-4h4v4h-4zm4-2h-4v-4h4zm-18-4v4h-4v-4zm-4 12h4v4h-4zm16.382 12h-10.764l3-6h4.764zm1.618-8v-4h4v4zm36-36h2v2h-2zm-12 0h2v2h-2zm2 30h-2v-2h2zm12 0h-2v-2h2zm2-4h-18v-22h18z" fill="#e62445" data-original="#000000" style="" class=""/><path d="m47.879 10.707-.586.586 1.414 1.414.586-.586c1.446-1.446 3.968-1.446 5.414 0l.586.586 1.414-1.414-.586-.586c-1.1-1.101-2.564-1.707-4.121-1.707s-3.021.606-4.121 1.707z" fill="#e62445" data-original="#000000" style="" class=""/><path d="m45.878 9.536c1.636-1.636 3.81-2.536 6.122-2.536s4.486.9 6.122 2.536l.171.171 1.414-1.414-.171-.171c-2.013-2.014-4.689-3.122-7.536-3.122s-5.523 1.108-7.536 3.122l-.171.171 1.414 1.414z" fill="#e62445" data-original="#000000" style="" class=""/><path d="m56.121 53.293.586-.586-1.414-1.414-.586.586c-1.446 1.446-3.968 1.446-5.414 0l-.586-.586-1.414 1.414.586.586c1.1 1.101 2.564 1.707 4.121 1.707s3.021-.606 4.121-1.707z" fill="#e62445" data-original="#000000" style="" class=""/><path d="m58.122 54.464c-1.636 1.636-3.81 2.536-6.122 2.536s-4.486-.9-6.122-2.536l-.171-.171-1.414 1.414.171.171c2.013 2.014 4.689 3.122 7.536 3.122s5.523-1.108 7.536-3.122l.171-.171-1.414-1.414z" fill="#e62445" data-original="#000000" style="" class=""/></g></g></svg>
