<?xml version="1.0" encoding="utf-8"?>
<!-- Generator: Adobe Illustrator 24.0.2, SVG Export Plug-In . SVG Version: 6.00 Build 0)  -->
<svg version="1.1" id="Layer_1" xmlns:svgjs="http://svgjs.com/svgjs"
	 xmlns="http://www.w3.org/2000/svg" xmlns:xlink="http://www.w3.org/1999/xlink" x="0px" y="0px" viewBox="0 0 512 512"
	 style="enable-background:new 0 0 512 512;" xml:space="preserve">
<style type="text/css">
	.st0{fill:#E62445;}
</style>
<g>
	<path class="st0" d="M459.7,64.3c-65.3-44.2-134-65.8-204.1-64.2C190.9,1.6,122.8,23,53.1,63.8c-4.6,2.7-7.4,7.6-7.4,12.9v176.6
		c0,31.3,4.7,59.4,13.9,83.6c10.8,28.3,27.7,51.3,50.5,68.5L247,509c2.7,2,5.9,3,9,3s6.4-1,9.1-3L402,405.4
		c22.7-17.2,39.7-40.2,50.4-68.5c9.2-24.2,13.9-52.3,13.9-83.5V76.7C466.3,71.8,463.8,67.1,459.7,64.3z M436.3,253.4
		c0,58.7-17.6,101.8-52.4,128l-127.9,96.7l-128-96.7c-34.8-26.3-52.4-69.4-52.4-128.1V85.4c129.9-73.6,248-73.8,360.6-0.6V253.4z"/>
	<path class="st0" d="M157.4,252c2.5,5.3,7.8,8.6,13.6,8.6h45.6v116.4c0,6.3,4,12,9.9,14.1c1.7,0.6,3.4,0.9,5.1,0.9
		c4.4,0,8.7-1.9,11.6-5.4l109.4-132.3c3.7-4.5,4.5-10.7,2-15.9c-2.5-5.3-7.8-8.6-13.6-8.6h-45.6V113.3c0-6.3-4-12-9.9-14.1
		c-6-2.1-12.6-0.3-16.6,4.6L159.4,236.1C155.7,240.6,155,246.8,157.4,252z M265.4,155v89.7c0,8.3,6.7,15,15,15h28.8l-62.5,75.6
		v-89.7c0-8.3-6.7-15-15-15h-28.8L265.4,155z"/>
</g>
</svg>
