<?xml version="1.0"?>
<svg xmlns="http://www.w3.org/2000/svg" xmlns:xlink="http://www.w3.org/1999/xlink" xmlns:svgjs="http://svgjs.com/svgjs" version="1.1" width="512" height="512" x="0" y="0" viewBox="0 0 85.264 85.264" style="enable-background:new 0 0 512 512" xml:space="preserve" class=""><g>
<g xmlns="http://www.w3.org/2000/svg">
	<g>
		<path d="M77.414,48.119h-9.021c-0.203,0-0.369,0.166-0.369,0.371v1.42c0.048-0.226,0.238-0.397,0.479-0.397h8.559    c0.277,0,0.5,0.224,0.5,0.5v9.358c0,0.275-0.223,0.5-0.5,0.5h-8.559c-0.24,0-0.432-0.172-0.479-0.398v2.945    c0,0.205,0.166,0.371,0.369,0.371h9.021c0.203,0,0.369-0.166,0.369-0.371V48.49C77.784,48.285,77.618,48.119,77.414,48.119z     M72.904,62.759c-0.788,0-1.43-0.642-1.43-1.431c0-0.787,0.642-1.428,1.43-1.428s1.43,0.641,1.43,1.428    C74.333,62.117,73.692,62.759,72.904,62.759z" fill="#e62445" data-original="#000000" style="" class=""/>
		<rect x="69.002" y="50.513" width="7.559" height="8.358" fill="#e62445" data-original="#000000" style="" class=""/>
		<circle cx="72.904" cy="61.329" r="0.43" fill="#e62445" data-original="#000000" style="" class=""/>
		<path d="M72.904,43.094c-6.814,0-12.36,5.544-12.36,12.359c0,6.814,5.546,12.359,12.36,12.359s12.359-5.544,12.359-12.359    S79.719,43.094,72.904,43.094z M78.784,62.416c0,0.757-0.614,1.371-1.369,1.371h-9.021c-0.756,0-1.371-0.614-1.371-1.371V48.49    c0-0.756,0.615-1.371,1.371-1.371h9.021c0.755,0,1.369,0.615,1.369,1.371V62.416z" fill="#e62445" data-original="#000000" style="" class=""/>
	</g>
	<g>
		<path d="M49.86,36.731c6.815,0,12.358-5.544,12.358-12.36c0-6.815-5.543-12.359-12.358-12.359c-6.815,0-12.36,5.544-12.36,12.359    c0,4.34,2.272,8.345,5.968,10.58l-1.385,2.052c-0.15,0.222-0.099,0.522,0.116,0.682l2.27,1.68l-1.039,1.62l-8.482-8.261    c-0.01-0.009-0.014-0.021-0.024-0.03c-0.005-0.004-0.01-0.004-0.015-0.008l-0.016-0.015L16.347,19.535    c-0.213-0.148-0.503-0.113-0.671,0.085L0.118,38.048c-0.146,0.173-0.158,0.423-0.028,0.609l2.419,3.461v8.983    c0,0.093,0.025,0.183,0.073,0.261L15.85,73.014c0.023,0.037,0.061,0.059,0.091,0.087c0.022,0.021,0.037,0.043,0.063,0.06    c0.082,0.056,0.174,0.092,0.273,0.092c0.042,0,0.085-0.004,0.128-0.016l0.007-0.002h0.001l12.767-3.371    c0.017,0.002,0.029,0.016,0.046,0.016c0.044,0,0.087-0.006,0.13-0.018l7.66-2.066l11.126-2.938    c0.013-0.004,0.021-0.013,0.031-0.017c0.033-0.011,0.063-0.027,0.092-0.046c0.027-0.016,0.054-0.03,0.076-0.051    c0.024-0.021,0.043-0.045,0.063-0.071c0.019-0.024,0.037-0.05,0.052-0.077c0.014-0.027,0.021-0.059,0.03-0.088    c0.01-0.033,0.019-0.064,0.021-0.1c0.002-0.012,0.008-0.021,0.008-0.035V48.219l2.35,2.162c0.146,0.134,0.359,0.169,0.54,0.09    c0.183-0.08,0.299-0.26,0.299-0.458v-0.761c0-0.135-0.056-0.264-0.151-0.358l-7.117-6.933l4.727-2.608    c0.146-0.082,0.244-0.232,0.257-0.4c0.015-0.168-0.06-0.331-0.192-0.434l-1.922-1.485l0.521-0.474    C48.504,36.674,49.188,36.731,49.86,36.731z M39.878,38.916L35.22,34.63c-0.1-0.092-0.237-0.136-0.368-0.131    c-0.136,0.008-0.262,0.071-0.351,0.174L17.534,54.469l17.109-20.654L39.878,38.916z M15.776,70.979L3.508,50.959v-7.41    l10.726,15.346c0.089,0.126,0.231,0.205,0.386,0.213c0.008,0,0.017,0,0.024,0c0.146,0,0.284-0.062,0.38-0.175l0.752-0.877V70.979z     M14.134,57.006L1.129,38.4l15.015-17.783L33.879,33.17L14.134,57.006z M36.384,66.928l-6.66,1.758V53.688l6.66-1.301V66.928z     M47.59,47.369c-0.045,0.074-0.076,0.158-0.076,0.25V63.99l-10.129,2.674V51.781c0-0.149-0.066-0.291-0.182-0.387    s-0.271-0.135-0.414-0.105l-7.66,1.496c-0.235,0.047-0.404,0.252-0.404,0.492v15.672l-11.948,3.154V56.89l18.148-21.172    L47.59,47.369z M55.969,17.846c0.195-0.195,0.512-0.195,0.707,0c1.82,1.82,2.823,4.241,2.823,6.816s-1.003,4.995-2.823,6.816    c-0.098,0.098-0.226,0.146-0.354,0.146s-0.255-0.048-0.354-0.146c-0.195-0.195-0.195-0.512,0-0.707    c1.633-1.632,2.53-3.801,2.53-6.109s-0.897-4.477-2.53-6.109C55.773,18.358,55.773,18.041,55.969,17.846z M54.225,19.59    c0.195-0.195,0.513-0.195,0.707,0c2.797,2.797,2.797,7.348,0,10.145c-0.098,0.098-0.226,0.146-0.354,0.146    s-0.256-0.049-0.354-0.146c-0.195-0.195-0.195-0.512,0-0.707c2.406-2.407,2.406-6.323,0-8.73    C54.03,20.101,54.03,19.785,54.225,19.59z M43.751,31.478c-0.098,0.098-0.226,0.146-0.354,0.146c-0.128,0-0.255-0.048-0.353-0.146    c-1.82-1.821-2.823-4.241-2.823-6.816s1.003-4.996,2.823-6.816c0.195-0.195,0.512-0.195,0.707,0c0.195,0.195,0.195,0.512,0,0.707    c-1.632,1.632-2.53,3.801-2.53,6.109s0.898,4.477,2.53,6.109C43.947,30.966,43.947,31.283,43.751,31.478z M45.494,29.734    c-0.098,0.098-0.227,0.146-0.354,0.146c-0.129,0-0.256-0.049-0.354-0.146c-1.355-1.354-2.102-3.156-2.102-5.072    s0.746-3.718,2.102-5.073c0.194-0.195,0.513-0.195,0.707,0c0.194,0.195,0.194,0.512,0,0.707c-1.166,1.166-1.809,2.717-1.809,4.366    s0.643,3.199,1.809,4.365C45.689,29.222,45.689,29.539,45.494,29.734z M45.797,27.845c-0.275,0-0.5-0.224-0.5-0.5    c0-1.093,0.578-2.101,1.598-2.803v-1.549c0-1.635,1.33-2.966,2.966-2.966s2.967,1.331,2.967,2.966v1.549    c1.019,0.702,1.595,1.71,1.595,2.803c0,0.276-0.224,0.5-0.5,0.5h-1.886c0.104,0.091,0.172,0.222,0.172,0.371    c0,1.076-1.053,1.951-2.348,1.951c-1.294,0-2.347-0.875-2.347-1.951c0-0.149,0.067-0.279,0.172-0.371H45.797z" fill="#e62445" data-original="#000000" style="" class=""/>
		<path d="M49.86,29.167c0.473,0,0.897-0.183,1.14-0.451h-2.277C48.963,28.984,49.387,29.167,49.86,29.167z" fill="#e62445" data-original="#000000" style="" class=""/>
		<path d="M52.069,25.243c-0.15-0.09-0.242-0.253-0.242-0.428v-1.821c0-1.084-0.882-1.966-1.967-1.966    c-1.084,0-1.966,0.882-1.966,1.966v1.821c0,0.175-0.092,0.338-0.242,0.428c-0.684,0.411-1.135,0.978-1.292,1.603h6.999    C53.201,26.22,52.75,25.654,52.069,25.243z" fill="#e62445" data-original="#000000" style="" class=""/>
	</g>
	<path d="M39.357,60.144c0.044,0,0.088-0.006,0.131-0.017l4.357-1.178c0.217-0.059,0.369-0.258,0.369-0.483l-0.012-4.294   c0.01-0.042,0.003-0.086,0-0.131l-0.009-3.557c0-0.15-0.067-0.291-0.185-0.386c-0.114-0.094-0.266-0.13-0.414-0.103l-4.338,0.867   c-0.234,0.047-0.402,0.252-0.402,0.489v8.291c0,0.156,0.072,0.302,0.196,0.397C39.141,60.109,39.248,60.144,39.357,60.144z    M39.857,58.992v-3.527l3.349-0.76l0.008,3.379L39.857,58.992z M43.197,51.096l0.006,2.584l-3.346,0.759v-2.675L43.197,51.096z" fill="#e62445" data-original="#000000" style="" class=""/>
	<path d="M33.539,41.498c-1.836,0-3.329,1.624-3.329,3.62c0,1.994,1.493,3.619,3.329,3.619s3.329-1.625,3.329-3.619   c0-0.016-0.004-0.029-0.004-0.045c-0.001-0.004,0.002-0.009,0.001-0.014c-0.001-0.004-0.003-0.007-0.004-0.011   C36.827,43.084,35.354,41.498,33.539,41.498z M35.828,44.677l-1.789,0.21v-2.324C34.957,42.79,35.669,43.627,35.828,44.677z    M33.039,42.562v2.44l-1.82,0.214c-0.001-0.034-0.009-0.065-0.009-0.101C31.21,43.867,31.995,42.821,33.039,42.562z M31.425,46.199   l1.614-0.188v1.661C32.319,47.492,31.725,46.938,31.425,46.199z M34.039,47.672v-1.778l1.771-0.208   C35.614,46.675,34.92,47.453,34.039,47.672z" fill="#e62445" data-original="#000000" style="" class=""/>
	<path d="M27.11,57.472l-0.009-3.556c0-0.15-0.067-0.293-0.184-0.387c-0.115-0.094-0.267-0.129-0.414-0.103l-4.338,0.868   c-0.234,0.047-0.402,0.252-0.402,0.49v8.289c0,0.156,0.072,0.303,0.196,0.397c0.088,0.067,0.195,0.103,0.304,0.103   c0.044,0,0.087-0.006,0.13-0.017l4.357-1.175c0.219-0.059,0.371-0.258,0.37-0.484l-0.011-4.295   C27.118,57.56,27.113,57.516,27.11,57.472z M26.103,54.527l0.006,2.582l-3.346,0.76v-2.676L26.103,54.527z M22.763,62.42v-3.525   l3.349-0.759l0.008,3.38L22.763,62.42z" fill="#e62445" data-original="#000000" style="" class=""/>
	<path d="M53.624,51.367c-0.153-0.104-0.353-0.115-0.516-0.028c-0.164,0.086-0.267,0.256-0.267,0.442v2.289h-2.982   c-0.276,0-0.5,0.225-0.5,0.5v3.432c0,0.275,0.224,0.5,0.5,0.5h2.982v2.289c0,0.186,0.103,0.354,0.267,0.441   c0.073,0.039,0.153,0.059,0.233,0.059c0.098,0,0.196-0.029,0.281-0.088l6.602-4.504c0.136-0.092,0.218-0.248,0.218-0.412   c0-0.166-0.082-0.32-0.218-0.414L53.624,51.367z" fill="#e62445" data-original="#000000" style="" class=""/>
</g>
<g xmlns="http://www.w3.org/2000/svg">
</g>
<g xmlns="http://www.w3.org/2000/svg">
</g>
<g xmlns="http://www.w3.org/2000/svg">
</g>
<g xmlns="http://www.w3.org/2000/svg">
</g>
<g xmlns="http://www.w3.org/2000/svg">
</g>
<g xmlns="http://www.w3.org/2000/svg">
</g>
<g xmlns="http://www.w3.org/2000/svg">
</g>
<g xmlns="http://www.w3.org/2000/svg">
</g>
<g xmlns="http://www.w3.org/2000/svg">
</g>
<g xmlns="http://www.w3.org/2000/svg">
</g>
<g xmlns="http://www.w3.org/2000/svg">
</g>
<g xmlns="http://www.w3.org/2000/svg">
</g>
<g xmlns="http://www.w3.org/2000/svg">
</g>
<g xmlns="http://www.w3.org/2000/svg">
</g>
<g xmlns="http://www.w3.org/2000/svg">
</g>
</g></svg>
