<?xml version="1.0"?>
<svg xmlns="http://www.w3.org/2000/svg" xmlns:xlink="http://www.w3.org/1999/xlink" xmlns:svgjs="http://svgjs.com/svgjs" version="1.1" width="512" height="512" x="0" y="0" viewBox="0 0 64 64" style="enable-background:new 0 0 512 512" xml:space="preserve" class=""><g><g xmlns="http://www.w3.org/2000/svg"><path d="m44 40c-1.105 0-2 .895-2 2v-2c0-1.105-.895-2-2-2s-2 .895-2 2c0-1.105-.895-2-2-2s-2 .895-2 2c0-3.834 0-9 0-9 0-1.105-.895-2-2-2s-2 .895-2 2v15.245c0-3.472-2.814-6.286-6.286-6.287h-.096c-.894 0-1.618.724-1.618 1.618 0 .251.058.499.171.724l1.165 2.331c.437.873.664 1.835.664 2.811v4.108c0 .926.214 1.839.626 2.668l2.374 4.782v2.958l16 .042v-3l1.8-2.4c.779-1.039 1.2-2.302 1.2-3.6v-11c0-1.105-.896-2-2-2z" fill="#e62445" data-original="#000000" style="" class=""/><path d="m7 11v6h38.019c-1.261-1.674-2.019-3.747-2.019-6zm4 4h-2v-2h2zm4 0h-2v-2h2zm4 0h-2v-2h2zm4 0h-2v-2h2zm4 0h-2v-2h2zm4 0h-2v-2h2zm4 0h-2v-2h2zm4 0h-2v-2h2z" fill="#e62445" data-original="#000000" style="" class=""/><path d="m47.025 19h-42.025v-10h38.202c.142-.696.36-1.364.639-2h-39.841c-.551 0-1 .449-1 1v34c0 .551.449 1 1 1h16.312c-.194-.451-.312-.935-.312-1.424.001-1.995 1.625-3.618 3.619-3.618 1.612 0 3.11.444 4.381 1.214v-8.172c0-2.206 1.794-4 4-4s4 1.794 4 4v5c.728 0 1.411.195 2 .537.589-.342 1.272-.537 2-.537 1.491 0 2.794.82 3.482 2.033.17-.022.343-.033.518-.033 2.206 0 4 1.794 4 4v1h8c.551 0 1-.449 1-1v-21.841c-1.226.538-2.578.841-4 .841-2.241 0-4.305-.75-5.975-2zm-31.025 21h-10v-4h10zm-5-8c-2.761 0-5-2.239-5-5s2.239-5 5-5 5 2.239 5 5-2.239 5-5 5zm15 2h-4v-4h4zm0-8h-4v-4h4zm8 0h-4v-4h4zm8 8h-4v-4h4zm0-8h-4v-4h4zm12 10h-8v-12h8z" fill="#e62445" data-original="#000000" style="" class=""/><path d="m53 3c-4.411 0-8 3.589-8 8s3.589 8 8 8 8-3.589 8-8-3.589-8-8-8zm-2 13.414-3.707-3.707 1.414-1.414 2.293 2.293 6.293-6.293 1.414 1.414z" fill="#e62445" data-original="#000000" style="" class=""/></g></g></svg>
