<?xml version="1.0"?>
<svg xmlns="http://www.w3.org/2000/svg" xmlns:xlink="http://www.w3.org/1999/xlink" xmlns:svgjs="http://svgjs.com/svgjs" version="1.1" width="512" height="512" x="0" y="0" viewBox="0 0 512 512" style="enable-background:new 0 0 512 512" xml:space="preserve" class=""><g>
<g xmlns="http://www.w3.org/2000/svg">
	<g>
		<polygon points="39.466,62.018 0,101.474 64.277,165.752 103.744,126.296   " fill="#e62445" data-original="#000000" style="" class=""/>
	</g>
</g>
<g xmlns="http://www.w3.org/2000/svg">
	<g>
		<polygon points="124.946,147.498 85.49,186.964 146.968,248.443 186.434,208.987   " fill="#e62445" data-original="#000000" style="" class=""/>
	</g>
</g>
<g xmlns="http://www.w3.org/2000/svg">
	<g>
		<polygon points="101.474,0 60.679,40.806 124.956,105.083 165.752,64.277   " fill="#e62445" data-original="#000000" style="" class=""/>
	</g>
</g>
<g xmlns="http://www.w3.org/2000/svg">
	<g>
		<polygon points="186.964,85.49 146.159,126.286 207.647,187.774 248.443,146.968   " fill="#e62445" data-original="#000000" style="" class=""/>
	</g>
</g>
<g xmlns="http://www.w3.org/2000/svg">
	<g>
		<polygon points="303.023,325.566 263.557,365.032 326.445,427.92 365.901,388.453   " fill="#e62445" data-original="#000000" style="" class=""/>
	</g>
</g>
<g xmlns="http://www.w3.org/2000/svg">
	<g>
		<polygon points="387.104,409.656 347.648,449.122 410.526,512 449.992,472.534   " fill="#e62445" data-original="#000000" style="" class=""/>
	</g>
</g>
<g xmlns="http://www.w3.org/2000/svg">
	<g>
		<polygon points="365.032,263.557 324.236,304.363 387.114,367.241 427.92,326.445   " fill="#e62445" data-original="#000000" style="" class=""/>
	</g>
</g>
<g xmlns="http://www.w3.org/2000/svg">
	<g>
		<polygon points="449.122,347.648 408.316,388.443 471.204,451.331 512,410.526   " fill="#e62445" data-original="#000000" style="" class=""/>
	</g>
</g>
<g xmlns="http://www.w3.org/2000/svg">
	<g>
		<path d="M332.933,264.497l-85.43-85.43l-24.281,24.281l-15.575-15.575l-21.213,21.213l15.575,15.575l-66.886,66.886l32.109,32.109    l-9.807,9.817c-10.746-6.808-23.202-10.476-36.237-10.476c-18.144,0-35.198,7.068-47.993,19.863c-0.17,0.17-0.32,0.33-0.49,0.51    l-10.356,10.506l37.337,37.327L84.19,406.607l21.203,21.203l15.495-15.495l37.307,37.307l10.506-10.306    c0.18-0.16,0.36-0.33,0.51-0.48c12.826-12.825,19.893-29.88,19.893-48.023c0-13.035-3.669-25.491-10.476-36.237l9.807-9.807    l32.109,32.109l66.896-66.896l15.585,15.584l21.213-21.203l-15.584-15.584L332.933,264.497z" fill="#e62445" data-original="#000000" style="" class=""/>
	</g>
</g>
<g xmlns="http://www.w3.org/2000/svg">
	<g>
		<polygon points="408.906,119.018 386.994,98.535 338.661,150.227 307.512,119.068 268.706,157.865 354.135,243.294     392.932,204.488 359.883,171.44   " fill="#e62445" data-original="#000000" style="" class=""/>
	</g>
</g>
<g xmlns="http://www.w3.org/2000/svg">
	<g>
		<path d="M103.741,456.039c-12.549,0.269-24.431-5.003-32.66-14.429c-8.297-9.505-11.885-22.106-9.844-34.575l-29.596-4.844    c-3.49,21.323,2.651,42.879,16.847,59.14c13.752,15.755,33.498,24.706,54.373,24.706c0.496,0,0.993-0.005,1.49-0.015    L103.741,456.039z" fill="#e62445" data-original="#000000" style="" class=""/>
	</g>
</g>
<g xmlns="http://www.w3.org/2000/svg">
</g>
<g xmlns="http://www.w3.org/2000/svg">
</g>
<g xmlns="http://www.w3.org/2000/svg">
</g>
<g xmlns="http://www.w3.org/2000/svg">
</g>
<g xmlns="http://www.w3.org/2000/svg">
</g>
<g xmlns="http://www.w3.org/2000/svg">
</g>
<g xmlns="http://www.w3.org/2000/svg">
</g>
<g xmlns="http://www.w3.org/2000/svg">
</g>
<g xmlns="http://www.w3.org/2000/svg">
</g>
<g xmlns="http://www.w3.org/2000/svg">
</g>
<g xmlns="http://www.w3.org/2000/svg">
</g>
<g xmlns="http://www.w3.org/2000/svg">
</g>
<g xmlns="http://www.w3.org/2000/svg">
</g>
<g xmlns="http://www.w3.org/2000/svg">
</g>
<g xmlns="http://www.w3.org/2000/svg">
</g>
</g></svg>
