<?xml version="1.0" encoding="utf-8"?>
<!-- Generator: Adobe Illustrator 24.0.2, SVG Export Plug-In . SVG Version: 6.00 Build 0)  -->
<svg version="1.1" id="Capa_1" xmlns="http://www.w3.org/2000/svg" xmlns:xlink="http://www.w3.org/1999/xlink" x="0px" y="0px"
	 viewBox="0 0 33.3 33.3" style="enable-background:new 0 0 33.3 33.3;" xml:space="preserve">
<style type="text/css">
	.st0{fill:#E62445;}
</style>
<g>
	<path class="st0" d="M24.1,0H9.2C8,0,7,1,7,2.2V31c0,1.2,1,2.2,2.2,2.2h14.8c1.2,0,2.2-1,2.2-2.2V2.2C26.3,1,25.3,0,24.1,0z
		 M14.3,1.6H19c0.1,0,0.3,0.1,0.3,0.3c0,0.1-0.1,0.3-0.3,0.3h-4.7C14.1,2.2,14,2,14,1.9C14,1.7,14.1,1.6,14.3,1.6z M8.5,29.1V3.6
		h16.2l0,23.3l-3.7-6.3c1.1-1.7,1.3-3.9,0.2-5.7c-1.1-1.9-3.1-2.8-5.1-2.7l2,3.5c0.7,1.2,0.3,2.7-0.9,3.3S14.7,19.2,14,18l-2-3.5
		c-1.1,1.7-1.3,3.9-0.2,5.7c1.1,1.9,3.1,2.8,5,2.7l3.6,6.2C20.4,29.1,8.5,29.1,8.5,29.1z M16.6,32.2c-0.6,0-1.1-0.5-1.1-1.1
		s0.5-1.1,1.1-1.1s1.1,0.5,1.1,1.1S17.3,32.2,16.6,32.2z"/>
</g>
</svg>
