<?xml version="1.0" encoding="utf-8"?>
<!-- Generator: Adobe Illustrator 24.0.2, SVG Export Plug-In . SVG Version: 6.00 Build 0)  -->
<svg version="1.1" id="Layer_1" xmlns:svgjs="http://svgjs.com/svgjs"
	 xmlns="http://www.w3.org/2000/svg" xmlns:xlink="http://www.w3.org/1999/xlink" x="0px" y="0px" viewBox="0 0 512 512"
	 style="enable-background:new 0 0 512 512;" xml:space="preserve">
<style type="text/css">
	.st0{fill:#E62445;}
</style>
<g>
	<g>
		<g>
			<path class="st0" d="M503.5,494.9H8.5c-4.7,0-8.5,3.8-8.5,8.5s3.8,8.5,8.5,8.5h494.9c4.7,0,8.5-3.8,8.5-8.5
				S508.2,494.9,503.5,494.9z"/>
		</g>
	</g>
	<g>
		<g>
			<path class="st0" d="M256,0H34.1c-4.7,0-8.5,3.8-8.5,8.5v494.9c0,4.7,3.8,8.5,8.5,8.5H256c4.7,0,8.5-3.8,8.5-8.5V8.5
				C264.5,3.8,260.7,0,256,0z M247.5,494.9H42.7V17.1h204.8V494.9z"/>
		</g>
	</g>
	<g>
		<g>
			<path class="st0" d="M221.9,34.1H68.3c-4.7,0-8.5,3.8-8.5,8.5v460.8c0,4.7,3.8,8.5,8.5,8.5h153.6c4.7,0,8.5-3.8,8.5-8.5V42.7
				C230.4,38,226.6,34.1,221.9,34.1z M213.3,494.9H76.8V51.2h136.5L213.3,494.9L213.3,494.9z"/>
		</g>
	</g>
	<g>
		<g>
			<path class="st0" d="M477.9,0H256c-4.7,0-8.5,3.8-8.5,8.5v494.9c0,4.7,3.8,8.5,8.5,8.5h221.9c4.7,0,8.5-3.8,8.5-8.5V8.5
				C486.4,3.8,482.6,0,477.9,0z M469.3,494.9H264.5V17.1h204.8V494.9z"/>
		</g>
	</g>
	<g>
		<g>
			<path class="st0" d="M443.7,34.1H290.1c-4.7,0-8.5,3.8-8.5,8.5v460.8c0,4.7,3.8,8.5,8.5,8.5h153.6c4.7,0,8.5-3.8,8.5-8.5V42.7
				C452.3,38,448.5,34.1,443.7,34.1z M435.2,494.9H298.7V51.2h136.5V494.9z"/>
		</g>
	</g>
	<g>
		<g>
			<path class="st0" d="M324.3,213.3c-4.7,0-8.5,3.8-8.5,8.5v102.4c0,4.7,3.8,8.5,8.5,8.5s8.5-3.8,8.5-8.5V221.9
				C332.8,217.2,329,213.3,324.3,213.3z"/>
		</g>
	</g>
	<g>
		<g>
			<path class="st0" d="M187.7,213.3c-4.7,0-8.5,3.8-8.5,8.5v102.4c0,4.7,3.8,8.5,8.5,8.5s8.5-3.8,8.5-8.5V221.9
				C196.3,217.2,192.5,213.3,187.7,213.3z"/>
		</g>
	</g>
</g>
</svg>
