<?xml version="1.0"?>
<svg xmlns="http://www.w3.org/2000/svg" xmlns:xlink="http://www.w3.org/1999/xlink" xmlns:svgjs="http://svgjs.com/svgjs" version="1.1" width="512" height="512" x="0" y="0" viewBox="0 0 512.003 512.003" style="enable-background:new 0 0 512 512" xml:space="preserve" class=""><g><g xmlns="http://www.w3.org/2000/svg"><path d="m151.001 270.003h-60c-8.284 0-15 6.716-15 15v212c0 8.284 6.716 15 15 15h60c8.284 0 15-6.716 15-15v-212c0-8.284-6.716-15-15-15z" fill="#e62445" data-original="#000000" style=""/><path d="m331.001 270.003h-120c-8.284 0-15 6.716-15 15v212c0 8.284 6.716 15 15 15h120c8.284 0 15-6.716 15-15v-212c0-8.284-6.716-15-15-15z" fill="#e62445" data-original="#000000" style=""/><path d="m451.001 270.003h-60c-8.284 0-15 6.716-15 15v212c0 8.284 6.716 15 15 15h60c8.284 0 15-6.716 15-15v-212c0-8.284-6.716-15-15-15z" fill="#e62445" data-original="#000000" style=""/><path d="m188.721 62.143c-7.11-4.27-16.32-1.96-20.58 5.14-6.81 11.35-13.12 23.02-18.9 34.96 4.38-28.14 9.84-56.11 16.36-83.8 1.9-8.07-3.1-16.14-11.16-18.04-8.07-1.9-16.14 3.1-18.04 11.16-6.01 25.56-11.15 51.33-15.4 77.27-4.25-25.94-9.39-51.71-15.4-77.27-1.9-8.06-9.97-13.06-18.04-11.16-8.06 1.9-13.06 9.97-11.16 18.04 6.52 27.69 11.98 55.66 16.36 83.8-5.78-11.94-12.09-23.61-18.9-34.96-4.26-7.1-13.47-9.41-20.58-5.14-7.1 4.26-9.4 13.47-5.14 20.58 28.73 47.89 47.9 101.94 55.89 157.28h33.94c7.99-55.34 27.16-109.39 55.89-157.28 4.26-7.11 1.96-16.32-5.14-20.58z" fill="#e62445" data-original="#000000" style=""/><path d="m316.001 15.003c0-8.28-6.72-15-15-15h-60c-8.28 0-15 6.72-15 15v23.78l90 90z" fill="#e62445" data-original="#000000" style=""/><path d="m226.001 171.223v68.78h68.78z" fill="#e62445" data-original="#000000" style=""/><path d="m316.001 171.223-90-90v47.56l90 90z" fill="#e62445" data-original="#000000" style=""/><path d="m436.001 15.003c0-8.28-6.72-15-15-15s-15 6.72-15 15v225h30z" fill="#e62445" data-original="#000000" style=""/></g></g></svg>
