<?xml version="1.0"?>
<svg xmlns="http://www.w3.org/2000/svg" xmlns:xlink="http://www.w3.org/1999/xlink" xmlns:svgjs="http://svgjs.com/svgjs" version="1.1" width="512" height="512" x="0" y="0" viewBox="0 0 512 512" style="enable-background:new 0 0 512 512" xml:space="preserve" class=""><g><g xmlns="http://www.w3.org/2000/svg"><path d="m0 0v30h36.893c-5.227 8.935-8.239 19.317-8.239 30.395 0 33.302 27.093 60.395 60.395 60.395s60.395-27.093 60.395-60.395c0-11.078-3.012-21.46-8.239-30.395h62.638c-5.227 8.935-8.239 19.317-8.239 30.395 0 33.302 27.093 60.395 60.395 60.395s60.395-27.093 60.395-60.395c0-11.078-3.011-21.46-8.239-30.395h62.638c-5.227 8.935-8.239 19.317-8.239 30.395 0 33.302 27.093 60.395 60.395 60.395s60.395-27.093 60.395-60.395c0-11.078-3.011-21.46-8.239-30.395h36.895v-30zm89.049 90.789c-16.76 0-30.395-13.635-30.395-30.395s13.636-30.394 30.395-30.394 30.395 13.635 30.395 30.395-13.635 30.394-30.395 30.394zm166.951 0c-16.76 0-30.395-13.635-30.395-30.395s13.635-30.394 30.395-30.394 30.395 13.635 30.395 30.395-13.635 30.394-30.395 30.394zm166.951 0c-16.76 0-30.395-13.635-30.395-30.395s13.635-30.394 30.395-30.394 30.395 13.635 30.395 30.395-13.636 30.394-30.395 30.394z" fill="#e62445" data-original="#000000" style="" class=""/><path d="m189.989 201.076h132.021v140.847h-132.021z" fill="#e62445" data-original="#000000" style="" class=""/><path d="m352.011 201.076h132.021v140.847h-132.021z" fill="#e62445" data-original="#000000" style="" class=""/><path d="m27.968 201.076h132.021v140.847h-132.021z" fill="#e62445" data-original="#000000" style="" class=""/><path d="m0 371.923h512v40.372h-512z" fill="#e62445" data-original="#000000" style="" class=""/><path d="m443.521 442.294h-51v39.706h-111.022v-39.706h-50.997v39.706h-111.023v-39.944h-51v39.944h-68.479v30h512v-30h-68.479z" fill="#e62445" data-original="#000000" style="" class=""/></g></g></svg>
