<?xml version="1.0" encoding="utf-8"?>
<!-- Generator: Adobe Illustrator 24.0.2, SVG Export Plug-In . SVG Version: 6.00 Build 0)  -->
<svg version="1.1" id="Layer_1" xmlns="http://www.w3.org/2000/svg" xmlns:xlink="http://www.w3.org/1999/xlink" x="0px" y="0px"
	 viewBox="0 0 681 681" style="enable-background:new 0 0 681 681;" xml:space="preserve">
<style type="text/css">
	.st0{fill:#E62445;}
</style>
<path class="st0" d="M656.7,604.7l-39.6-66.2c-6.2-10.1-20.4-12.5-29.2-3.7l-13.1,13.5l-53.1-53.1l-26.6,26.6l53.1,53.1l-13.5,13.1
	c-8.3,7.6-7,22.6,3.7,29.2l66.2,39.6c6.9,4.3,16.5,3.3,22.8-3l26.2-26.2C660.1,621.2,661.2,611.8,656.7,604.7z"/>
<path class="st0" d="M349.6,270.3c-7.1-7.1-19.1-7.1-26.6,0l-52.7,52.7c-7.1,7.5-7.1,19.5,0,26.6l66.1,66.1
	c77.4-77.5,42.3-42.3,77.7-77.7c0-0.9,0-1.7,0.1-2.6c0-0.2,0-0.3,0-0.5L349.6,270.3z"/>
<path class="st0" d="M531.8,432.3c28.8,3.7,58.3-5.6,78.9-26.2c32.2-32.2,35.9-81.2,12-117.8L558,353c-7.7,7.7-19.3,7.3-26.6,0
	c-7.1-7.1-7.1-19.1,0-26.6l64.7-64.7c-36.3-23.6-85.6-19.8-117.4,12c-20.9,20.6-30.3,50.1-26.2,78.9L345.9,459.2
	c-28.8-4.1-58.4,5.2-78.9,26.2c-31.8,31.8-35.5,81.2-12,117.4l64.7-64.7c7.5-7.1,19.5-7.1,26.6,0c7.5,7.5,7.5,19.1,0,26.6
	l-64.7,64.7c34.9,23.3,85.2,20.7,117.8-12c20.6-20.6,29.9-50.1,26.2-78.9L531.8,432.3z"/>
<path class="st0" d="M243.8,296.9l13.8-13.8c-6-3-9.7-9.4-9.7-16.5c0-10.5,8.2-18.7,18.7-18.7c7.1,0,13.5,3.7,16.5,9.7l13.8-13.8
	c10.5-10.5,24.7-16.5,39.6-16.5c15,0,29.2,6,39.6,16.5l47.5,47.5c6-16.5,16.1-31.4,28.8-44.1c16.1-16.1,35.9-27.7,57.2-33.3v-3.4H21
	v112.2h208.6C231.8,313.4,236.3,304.4,243.8,296.9z M117,285.3c-10.5,0-18.7-8.2-18.7-18.7c0-10.5,8.2-18.7,18.7-18.7
	s18.7,8.2,18.7,18.7C135.7,277.1,127.5,285.3,117,285.3z M191.8,285.3c-10.5,0-18.7-8.2-18.7-18.7c0-10.5,8.2-18.7,18.7-18.7
	c10.5,0,18.7,8.2,18.7,18.7C210.5,277.1,202.3,285.3,191.8,285.3z"/>
<path class="st0" d="M285.3,417.3c-0.8,10.1-8.6,17.6-18.7,17.6c-10.5,0-18.7-8.2-18.7-18.7c0-10.1,7.5-17.9,17.6-18.7l-21.7-21.3
	c-4.9-4.9-8.2-10.1-10.8-16.1H21V491c0,10.5,8.2,18.7,18.7,18.7h169.6c6.2-18.7,16.6-36.1,31.2-50.6c14.9-15.2,33.7-26.3,54.1-32.5
	L285.3,417.3z M117,434.9c-10.5,0-18.7-8.2-18.7-18.7c0-10.5,8.2-18.7,18.7-18.7s18.7,8.2,18.7,18.7
	C135.7,426.7,127.5,434.9,117,434.9z M191.8,434.9c-10.5,0-18.7-8.2-18.7-18.7c0-10.5,8.2-18.7,18.7-18.7c10.5,0,18.7,8.2,18.7,18.7
	C210.5,426.7,202.3,434.9,191.8,434.9z"/>
<path class="st0" d="M509.7,40.9c0-10.5-8.2-18.7-18.7-18.7H39.7C29.2,22.2,21,30.5,21,40.9v132.2h488.7V40.9z M117,135.7
	c-10.5,0-18.7-8.2-18.7-18.7s8.2-18.7,18.7-18.7s18.7,8.2,18.7,18.7S127.5,135.7,117,135.7z M191.8,135.7
	c-10.5,0-18.7-8.2-18.7-18.7s8.2-18.7,18.7-18.7c10.5,0,18.7,8.2,18.7,18.7S202.3,135.7,191.8,135.7z M266.6,135.7
	c-10.5,0-18.7-8.2-18.7-18.7s8.2-18.7,18.7-18.7s18.7,8.2,18.7,18.7S277.1,135.7,266.6,135.7z"/>
</svg>
