<?xml version="1.0" encoding="utf-8"?>
<!-- Generator: Adobe Illustrator 24.0.2, SVG Export Plug-In . SVG Version: 6.00 Build 0)  -->
<svg version="1.1" id="Capa_1" xmlns="http://www.w3.org/2000/svg" xmlns:xlink="http://www.w3.org/1999/xlink" x="0px" y="0px"
	 viewBox="0 0 512 512" style="enable-background:new 0 0 512 512;" xml:space="preserve">
<style type="text/css">
	.st0{fill:#E62445;}
</style>
<g>
	<path class="st0" d="M398.3,270.9h25c6.2,17.8,23.2,30.6,43.1,30.6c25.2,0,45.6-20.5,45.6-45.6s-20.5-45.6-45.6-45.6
		c-19.9,0-36.9,12.8-43.1,30.6h-25c-2.9-28-14-53.6-30.8-74.5l60.4-60.4c8.1,4.5,17.5,7.2,27.5,7.2c31.2,0,56.6-25.4,56.6-56.6
		S486.6,0,455.4,0s-56.6,25.4-56.6,56.6c0,10.4,2.8,20.1,7.7,28.4l-60.1,60.1c-21-17.1-46.8-28.4-75.1-31.4v-25
		c17.8-6.2,30.6-23.2,30.6-43.1c0-25.2-20.5-45.6-45.6-45.6s-45.6,20.5-45.6,45.6c0,19.9,12.8,36.9,30.6,43.1v25
		c-28.5,2.9-54.6,14.3-75.7,31.5l-60.1-60.1c4.9-8.4,7.8-18.1,7.8-28.5C113.2,25.4,87.8,0,56.6,0S0,25.4,0,56.6s25.4,56.6,56.6,56.6
		c9.9,0,19.3-2.6,27.4-7.1l60.5,60.5c-16.7,20.8-27.8,46.4-30.7,74.4h-25c-6.2-17.8-23.2-30.6-43.1-30.6C20.5,210.3,0,230.8,0,255.9
		s20.5,45.6,45.6,45.6c19.9,0,36.9-12.8,43.1-30.6h25c2.9,28,13.9,53.6,30.7,74.4l-60.5,60.5c-8.1-4.5-17.4-7-27.3-7
		C25.4,398.8,0,424.2,0,455.4S25.4,512,56.6,512s56.6-25.4,56.6-56.6c0-10.4-2.9-20.2-7.8-28.6l60.1-60.1
		c21.1,17.3,47.2,28.7,75.7,31.6v25c-17.8,6.2-30.6,23.2-30.6,43.1c0,25.2,20.5,45.6,45.6,45.6s45.6-20.5,45.6-45.6
		c0-19.9-12.8-36.9-30.6-43.1v-25c28.3-3,54.2-14.3,75.2-31.5l60.1,60.1c-4.9,8.4-7.7,18.1-7.7,28.5c0,31.2,25.4,56.6,56.6,56.6
		s56.6-25.4,56.6-56.6s-25.4-56.6-56.6-56.6c-9.9,0-19.3,2.6-27.4,7.1l-60.4-60.4C384.3,324.6,395.4,299,398.3,270.9L398.3,270.9z
		 M228.7,281c-0.9-7.9-1.3-16-1.3-24.3c0-8.8,0.5-17.4,1.5-25.7h54.3c1,8.4,1.5,17,1.5,25.7c0,8.2-0.5,16.3-1.3,24.3H228.7z
		 M277.8,311c-4.9,18.4-12.2,35-21.8,49c-9.6-14-16.9-30.6-21.8-49H277.8z M142.9,256c0-8.6,1-17,2.8-25h53
		c-0.9,8.4-1.3,17-1.3,25.7c0,8.2,0.4,16.3,1.2,24.3h-52.8C143.9,273,142.9,264.6,142.9,256L142.9,256z M234.6,201
		c4.9-17.8,12.1-33.9,21.4-47.5c9.3,13.6,16.5,29.7,21.4,47.5H234.6z M313.3,231h53c1.8,8,2.8,16.4,2.8,25c0,8.6-1,17-2.8,25h-52.8
		c0.8-8,1.2-16.1,1.2-24.3C314.6,248,314.2,239.4,313.3,231L313.3,231z M466.4,240.3c8.6,0,15.6,7,15.6,15.6c0,8.6-7,15.6-15.6,15.6
		s-15.6-7-15.6-15.6C450.7,247.3,457.7,240.3,466.4,240.3L466.4,240.3z M455.4,30c14.7,0,26.6,11.9,26.6,26.6s-11.9,26.6-26.6,26.6
		s-26.6-11.9-26.6-26.6S440.7,30,455.4,30z M354.7,201h-46.5c-4.6-19.5-11.6-37.6-20.7-53.6C316.3,155.8,340.4,175.3,354.7,201z
		 M256.2,30c8.6,0,15.6,7,15.6,15.6s-7,15.6-15.6,15.6s-15.6-7-15.6-15.6S247.6,30,256.2,30z M224.5,147.4
		c-9.2,15.9-16.2,34.1-20.7,53.6h-46.5C171.6,175.3,195.7,155.8,224.5,147.4z M30,56.6C30,41.9,41.9,30,56.6,30s26.6,11.9,26.6,26.6
		S71.3,83.2,56.6,83.2S30,71.3,30,56.6z M45.6,271.6c-8.6,0-15.6-7-15.6-15.6c0-8.6,7-15.6,15.6-15.6s15.6,7,15.6,15.6
		C61.3,264.6,54.3,271.6,45.6,271.6z M56.6,482C41.9,482,30,470.1,30,455.4s11.9-26.6,26.6-26.6s26.6,11.9,26.6,26.6
		S71.3,482,56.6,482z M157.3,311h46.1c4.4,19.4,11.2,37.4,20.1,53.3C195.1,355.7,171.4,336.4,157.3,311z M256.2,482
		c-8.6,0-15.6-7-15.6-15.6s7-15.6,15.6-15.6s15.6,7,15.6,15.6S264.8,482,256.2,482z M288.6,364.3c8.9-15.9,15.7-33.9,20.1-53.3h46.1
		C340.6,336.4,316.9,355.7,288.6,364.3z M482,455.4c0,14.7-11.9,26.6-26.6,26.6s-26.6-11.9-26.6-26.6s11.9-26.6,26.6-26.6
		S482,440.7,482,455.4z"/>
</g>
</svg>
