<?xml version="1.0" encoding="utf-8"?>
<!-- Generator: Adobe Illustrator 24.0.2, SVG Export Plug-In . SVG Version: 6.00 Build 0)  -->
<svg version="1.1" id="Layer_5" xmlns="http://www.w3.org/2000/svg" xmlns:xlink="http://www.w3.org/1999/xlink" x="0px" y="0px"
	 viewBox="0 0 512 512" style="enable-background:new 0 0 512 512;" xml:space="preserve">
<style type="text/css">
	.st0{fill:#E62445;}
</style>
<g>
	<path class="st0" d="M480,360H368c-13.2,0-24,10.8-24,24v64c0,13.2,10.8,24,24,24h24v16h-16v16h96v-16h-16v-16h24
		c13.2,0,24-10.8,24-24v-64C504,370.8,493.2,360,480,360z M368,376h112c4.4,0,8,3.6,8,8v40H360v-40C360,379.6,363.6,376,368,376z
		 M440,488h-32v-16h32V488z M480,456H368c-4.4,0-8-3.6-8-8v-8h128v8C488,452.4,484.4,456,480,456z"/>
	<path class="st0" d="M480,184H368c-13.2,0-24,10.8-24,24v64c0,13.2,10.8,24,24,24h24v16h-16v16h96v-16h-16v-16h24
		c13.2,0,24-10.8,24-24v-64C504,194.8,493.2,184,480,184z M368,200h112c4.4,0,8,3.6,8,8v40H360v-40C360,203.6,363.6,200,368,200z
		 M440,312h-32v-16h32V312z M480,280H368c-4.4,0-8-3.6-8-8v-8h128v8C488,276.4,484.4,280,480,280z"/>
	<path class="st0" d="M480,8H368c-13.2,0-24,10.8-24,24v64c0,13.2,10.8,24,24,24h24v16h-16v16h96v-16h-16v-16h24
		c13.2,0,24-10.8,24-24V32C504,18.8,493.2,8,480,8z M368,24h112c4.4,0,8,3.6,8,8v40H360V32C360,27.6,363.6,24,368,24z M440,136h-32
		v-16h32V136z M480,104H368c-4.4,0-8-3.6-8-8v-8h128v8C488,100.4,484.4,104,480,104z"/>
	<path class="st0" d="M312,248h16v16h-16V248z"/>
	<path class="st0" d="M280,80v128c0,4.4-3.6,8-8,8h-88v-48h-16V72H24v96H8v139l56,64v117h64V371l56-64v-11h88c4.4,0,8,3.6,8,8v96
		c0,13.2,10.8,24,24,24h24v-16h-24c-4.4,0-8-3.6-8-8v-96c0-13.2-10.8-24-24-24h-88v-16h112v-16H184v-16h88c13.2,0,24-10.8,24-24V80
		c0-4.4,3.6-8,8-8h24V56h-24C290.8,56,280,66.8,280,80z M75.6,360l-42-48h124.7l-42,48H75.6z M24,296v-80h48v48h48v-48h48v80H24z
		 M168,184v16h-48v-16H168z M88,184h16v64H88V184z M152,104h-16V88h16V104z M72,104V88h16v16H72z M104,88h16v16h-16V88z M56,88v16
		H40V88H56z M40,120h112v48h-32H72H40V120z M72,184v16H24v-16H72z M80,472v-96h32v96H80z"/>
</g>
</svg>
