<?xml version="1.0" encoding="utf-8"?>
<!-- Generator: Adobe Illustrator 24.0.2, SVG Export Plug-In . SVG Version: 6.00 Build 0)  -->
<svg version="1.1" id="Capa_1" xmlns="http://www.w3.org/2000/svg" xmlns:xlink="http://www.w3.org/1999/xlink" x="0px" y="0px"
	 viewBox="0 0 512 512" style="enable-background:new 0 0 512 512;" xml:space="preserve">
<style type="text/css">
	.st0{fill:#E62445;}
</style>
<g id="XMLID_1599_">
	<g id="XMLID_801_">
		<path id="XMLID_822_" class="st0" d="M500.7,223.2c-8.7-10.9-21.1-17.8-34.9-19.4c-13.8-1.6-27.5,2.3-38.4,11
			c-0.8,0.6-1.6,1.2-2.3,1.8v-31.4c0-39.3-13.8-77.5-38.8-107.7c-23-27.8-54.4-47.5-89.1-56.3c-0.9-4.3-2.9-8.4-5.8-11.8
			C286.3,3.4,278.9,0,271.1,0h-30.2c-7.8,0-15.2,3.4-20.3,9.3c-2.9,3.4-4.9,7.5-5.8,11.8c-34.7,8.7-66.1,28.5-89.1,56.3
			c-25,30.2-38.8,68.5-38.8,107.7v31.4c-0.8-0.6-1.6-1.2-2.3-1.8c-22.5-17.9-55.4-14.1-73.3,8.4c-17.9,22.5-14.1,55.4,8.4,73.3
			c13.9,11.1,29.1,20.3,45.2,27.6v81.8c0,39,15.2,75.6,42.7,103.1c1.9,1.9,4.4,2.9,7.1,2.9s5.2-1.1,7.1-2.9l31.1-31.1
			c3.9-3.9,3.9-10.2,0-14.1c-15.5-15.5-24-36-24-57.9v-63.5c9.1,1.2,18.3,1.7,27.5,1.7H211c5.5,0,10-4.5,10-10s-4.5-10-10-10h-54.6
			c-44.9,0-89-15.4-124.2-43.3c-13.9-11-16.2-31.3-5.2-45.2c11-13.9,31.3-16.2,45.2-5.2c23.9,18.9,53.8,29.4,84.2,29.4h199.2
			c30.5,0,60.4-10.4,84.2-29.4c6.7-5.3,15.1-7.7,23.7-6.8c8.5,1,16.2,5.2,21.5,12c5.3,6.7,7.7,15.1,6.8,23.7
			c-1,8.5-5.2,16.2-12,21.5c-35.2,27.9-79.3,43.3-124.2,43.3H301c-5.5,0-10,4.5-10,10s4.5,10,10,10h54.5c9.2,0,18.4-0.6,27.5-1.7
			v63.5c0,21.9-8.5,42.4-24,57.9c-3.9,3.9-3.9,10.2,0,14.1l31.1,31.1c1.9,1.9,4.4,2.9,7.1,2.9s5.2-1.1,7.1-2.9
			c27.6-27.6,42.7-64.2,42.7-103.1v-81.8c16.1-7.3,31.3-16.6,45.2-27.6c10.9-8.7,17.8-21.1,19.4-34.9
			C513.2,247.8,509.3,234.1,500.7,223.2L500.7,223.2z M132.1,470.5l-17,17C95.6,464.8,85,436.2,85,405.9v-73.8
			c7.9,2.7,15.9,5,24,6.8v67C109,429.8,117.1,452.4,132.1,470.5z M198,156.6v-23.8l58-30.2l58,30.2v23.8c0,37.2-23.2,69.9-58,82.3
			C221.2,226.5,198,193.8,198,156.6z M294.6,239.8c24.5-19.9,39.4-50.1,39.4-83.2v-29.8c0-3.7-2.1-7.1-5.4-8.9l-68-35.4
			c-2.9-1.5-6.3-1.5-9.2,0l-68,35.4c-3.3,1.7-5.4,5.1-5.4,8.9v29.8c0,33.1,14.9,63.3,39.4,83.2h-61c-17.1,0-34.1-3.9-49.5-11.2
			v-43.5c0-67.2,45.4-126,109.3-143.7l2.5,16.1c0.8,4.9,5,8.4,9.9,8.4c0.5,0,1,0,1.6-0.1c5.5-0.9,9.2-6,8.3-11.4l-4.2-26.7
			c-0.4-2.6,0.8-4.5,1.5-5.4c0.7-0.9,2.4-2.3,5.1-2.3h30.2c2.7,0,4.3,1.5,5.1,2.3c0.7,0.9,1.9,2.7,1.5,5.4l-4.2,26.7
			c-0.9,5.5,2.9,10.6,8.3,11.4c0.5,0.1,1,0.1,1.6,0.1c4.8,0,9.1-3.5,9.9-8.4l2.5-16.1C359.7,59.1,405,118,405,185.1v43.5
			c-15.4,7.3-32.3,11.2-49.5,11.2L294.6,239.8L294.6,239.8z M427,405.9c0,30.3-10.6,58.9-30.1,81.7l-17-17
			c15-18.2,23.1-40.8,23.1-64.6v-67c8.1-1.8,16.1-4.1,24-6.8V405.9z"/>
		<path id="XMLID_828_" class="st0" d="M294,151c0-3.7-2.1-7.1-5.4-8.9l-28-14.6c-2.9-1.5-6.3-1.5-9.2,0l-28,14.6
			c-3.3,1.7-5.4,5.1-5.4,8.9v5.6c0,23.7,12.6,45.9,32.9,57.9c1.6,0.9,3.3,1.4,5.1,1.4c1.8,0,3.5-0.5,5.1-1.4
			c20.3-12,32.9-34.2,32.9-57.9L294,151z M256,193.8c-11.2-8.8-17.9-22.1-18-36.8l18-9.4l18,9.4C273.8,171.7,267.2,185,256,193.8
			L256,193.8z"/>
		<path id="XMLID_829_" class="st0" d="M256,324.6c-2.6,0-5.2,1.1-7.1,2.9c-1.9,1.9-2.9,4.4-2.9,7.1c0,2.6,1.1,5.2,2.9,7.1
			c1.9,1.9,4.4,2.9,7.1,2.9c2.6,0,5.2-1.1,7.1-2.9c1.9-1.9,2.9-4.4,2.9-7.1c0-2.6-1.1-5.2-2.9-7.1
			C261.3,325.7,258.7,324.6,256,324.6z"/>
	</g>
</g>
</svg>
