<?xml version="1.0"?>
<svg xmlns="http://www.w3.org/2000/svg" xmlns:xlink="http://www.w3.org/1999/xlink" xmlns:svgjs="http://svgjs.com/svgjs" version="1.1" width="512" height="512" x="0" y="0" viewBox="0 0 512 512" style="enable-background:new 0 0 512 512" xml:space="preserve" class=""><g>
<g xmlns="http://www.w3.org/2000/svg">
	<g>
		<path d="M418.243,0H94.104C70.475,0,51.251,19.224,51.251,42.852v2.718c0,23.63,19.224,42.854,42.853,42.854h324.139    c23.629,0,42.852-19.224,42.852-42.853v-2.718C461.095,19.224,441.872,0,418.243,0z" fill="#e62445" data-original="#000000" style="" class=""/>
	</g>
</g>
<g xmlns="http://www.w3.org/2000/svg">
	<g>
		<path d="M99.461,117.808v17.727c0,8.269,4.543,15.803,11.854,19.663l19.607,10.349v45.716c0,17.138,13.942,31.08,31.08,31.08    h23.537v-49.14c0-8.283,6.716-14.999,14.999-14.999c8.283,0,14.999,6.716,14.999,14.999v49.14h25.637v-49.14    c0-8.283,6.716-14.999,14.999-14.999s14.999,6.716,14.999,14.999v49.14h25.078v-0.001v-49.14c0-8.283,6.716-14.999,14.999-14.999    c8.283,0,14.999,6.716,14.999,14.999v49.14h24.098c17.138,0,31.08-13.942,31.08-31.08v-45.231l19.919-10.923    c7.119-3.905,11.541-11.374,11.541-19.495v-17.805H99.461z" fill="#e62445" data-original="#000000" style="" class=""/>
	</g>
</g>
<g xmlns="http://www.w3.org/2000/svg">
	<g>
		<path d="M209.047,272.175c-5.857-5.858-15.354-5.858-21.211,0l-33.087,33.087c-5.858,5.858-5.858,15.354,0,21.211    c2.929,2.929,6.768,4.394,10.605,4.394s7.677-1.465,10.606-4.394l33.087-33.087C214.905,287.529,214.905,278.033,209.047,272.175z    " fill="#e62445" data-original="#000000" style="" class=""/>
	</g>
</g>
<g xmlns="http://www.w3.org/2000/svg">
	<g>
		<path d="M139.511,341.711c-5.857-5.858-15.354-5.858-21.211,0l-33.087,33.087c-5.858,5.858-5.858,15.354,0,21.211    c2.929,2.929,6.768,4.394,10.605,4.394c3.838,0,7.677-1.464,10.605-4.394l33.087-33.087    C145.369,357.065,145.369,347.569,139.511,341.711z" fill="#e62445" data-original="#000000" style="" class=""/>
	</g>
</g>
<g xmlns="http://www.w3.org/2000/svg">
	<g>
		<path d="M71.378,409.843c-5.856-5.859-15.353-5.859-21.211,0L17.081,442.93c-5.858,5.858-5.858,15.354,0,21.211    c2.929,2.929,6.768,4.394,10.605,4.394c3.838,0,7.677-1.464,10.605-4.394l33.087-33.087    C77.236,425.197,77.236,415.701,71.378,409.843z" fill="#e62445" data-original="#000000" style="" class=""/>
	</g>
</g>
<g xmlns="http://www.w3.org/2000/svg">
	<g>
		<path d="M357.25,305.964l-33.087-33.087c-5.857-5.858-15.354-5.858-21.21,0c-5.858,5.858-5.858,15.354,0,21.211l33.087,33.087    c2.929,2.929,6.768,4.394,10.605,4.394s7.677-1.464,10.605-4.394C363.108,321.318,363.108,311.821,357.25,305.964z" fill="#e62445" data-original="#000000" style="" class=""/>
	</g>
</g>
<g xmlns="http://www.w3.org/2000/svg">
	<g>
		<path d="M426.786,375.5l-33.086-33.087c-5.857-5.857-15.354-5.858-21.211,0c-5.858,5.858-5.858,15.354,0,21.211l33.087,33.087    c2.929,2.929,6.768,4.394,10.605,4.394s7.677-1.465,10.605-4.394C432.644,390.855,432.644,381.357,426.786,375.5z" fill="#e62445" data-original="#000000" style="" class=""/>
	</g>
</g>
<g xmlns="http://www.w3.org/2000/svg">
	<g>
		<path d="M494.918,443.632l-33.087-33.087c-5.857-5.858-15.354-5.858-21.211,0s-5.858,15.354,0,21.211l33.087,33.087    c2.929,2.929,6.768,4.394,10.605,4.394s7.677-1.464,10.605-4.394C500.777,458.986,500.777,449.489,494.918,443.632z" fill="#e62445" data-original="#000000" style="" class=""/>
	</g>
</g>
<g xmlns="http://www.w3.org/2000/svg">
	<g>
		<path d="M216.399,350.482c-7.524-3.468-16.433-0.18-19.9,7.342l-20.068,43.538c-3.469,7.523-0.181,16.433,7.342,19.901    c2.034,0.938,4.168,1.381,6.27,1.381c5.673,0,11.101-3.234,13.631-8.723l20.068-43.538    C227.21,362.859,223.922,353.949,216.399,350.482z" fill="#e62445" data-original="#000000" style="" class=""/>
	</g>
</g>
<g xmlns="http://www.w3.org/2000/svg">
	<g>
		<path d="M175.211,439.839c-7.524-3.467-16.433-0.18-19.9,7.342l-20.068,43.537c-3.469,7.522-0.181,16.433,7.342,19.901    c2.034,0.938,4.168,1.381,6.27,1.381c5.673,0,11.101-3.234,13.631-8.723l20.068-43.537    C186.021,452.216,182.733,443.306,175.211,439.839z" fill="#e62445" data-original="#000000" style="" class=""/>
	</g>
</g>
<g xmlns="http://www.w3.org/2000/svg">
	<g>
		<path d="M333.946,401.336l-20.069-43.538c-3.468-7.521-12.375-10.81-19.9-7.342c-7.523,3.468-10.811,12.377-7.342,19.901    l20.069,43.538c2.53,5.49,7.957,8.723,13.631,8.723c2.101,0,4.236-0.444,6.27-1.381    C334.127,417.769,337.415,408.859,333.946,401.336z" fill="#e62445" data-original="#000000" style="" class=""/>
	</g>
</g>
<g xmlns="http://www.w3.org/2000/svg">
	<g>
		<path d="M375.134,490.693l-20.068-43.537c-3.467-7.522-12.376-10.811-19.9-7.342c-7.522,3.468-10.811,12.377-7.342,19.901    l20.068,43.537c2.53,5.49,7.957,8.723,13.631,8.723c2.101,0,4.236-0.444,6.27-1.381    C375.314,507.125,378.603,498.216,375.134,490.693z" fill="#e62445" data-original="#000000" style="" class=""/>
	</g>
</g>
<g xmlns="http://www.w3.org/2000/svg">
</g>
<g xmlns="http://www.w3.org/2000/svg">
</g>
<g xmlns="http://www.w3.org/2000/svg">
</g>
<g xmlns="http://www.w3.org/2000/svg">
</g>
<g xmlns="http://www.w3.org/2000/svg">
</g>
<g xmlns="http://www.w3.org/2000/svg">
</g>
<g xmlns="http://www.w3.org/2000/svg">
</g>
<g xmlns="http://www.w3.org/2000/svg">
</g>
<g xmlns="http://www.w3.org/2000/svg">
</g>
<g xmlns="http://www.w3.org/2000/svg">
</g>
<g xmlns="http://www.w3.org/2000/svg">
</g>
<g xmlns="http://www.w3.org/2000/svg">
</g>
<g xmlns="http://www.w3.org/2000/svg">
</g>
<g xmlns="http://www.w3.org/2000/svg">
</g>
<g xmlns="http://www.w3.org/2000/svg">
</g>
</g></svg>
