<?xml version="1.0"?>
<svg xmlns="http://www.w3.org/2000/svg" xmlns:xlink="http://www.w3.org/1999/xlink" xmlns:svgjs="http://svgjs.com/svgjs" version="1.1" width="512" height="512" x="0" y="0" viewBox="0 0 64 64" style="enable-background:new 0 0 512 512" xml:space="preserve" class=""><g><path xmlns="http://www.w3.org/2000/svg" d="m59 7.998h-54c-2.757 0-5 2.243-5 5v4.004 29.996 4.004c0 2.757 2.243 5 5 5h54c2.757 0 5-2.243 5-5v-4.004-29.996-4.004c0-2.757-2.243-5-5-5zm-57 5c0-1.654 1.346-3 3-3h54c1.654 0 3 1.346 3 3v4.004 29.996c0 1.654-1.346 3-3 3h-54c-1.654 0-3-1.346-3-3v-29.996zm57 41.004h-54c-1.654 0-3-1.346-3-3v-.029c.838.635 1.87 1.025 3 1.025h54c1.13 0 2.162-.391 3-1.025v.029c0 1.654-1.346 3-3 3z" fill="#e62445" data-original="#000000" style="" class=""/><path xmlns="http://www.w3.org/2000/svg" d="m7.001 24.004h29.999c.553 0 1-.447 1-1v-8c0-.553-.447-1-1-1h-29.999c-.553 0-1 .447-1 1v8c0 .553.447 1 1 1zm1-8h27.999v6h-27.999z" fill="#e62445" data-original="#000000" style="" class=""/><path xmlns="http://www.w3.org/2000/svg" d="m7 46.004h6 6 6 6 6c.553 0 1-.447 1-1v-6-6-6c0-.553-.447-1-1-1h-6-6-6-6-6c-.553 0-1 .447-1 1v6 6 6c0 .553.447 1 1 1zm29-8h-4v-4h4zm-6 0h-4v-4h4zm-6 0h-4v-4h4zm-6 0h-4v-4h4zm-6 0h-4v-4h4zm-4 2h4v4h-4zm6 0h4v4h-4zm6 0h4v4h-4zm6 0h4v4h-4zm10 4h-4v-4h4zm0-12h-4v-4h4zm-6 0h-4v-4h4zm-6 0h-4v-4h4zm-6 0h-4v-4h4zm-10-4h4v4h-4z" fill="#e62445" data-original="#000000" style="" class=""/><path xmlns="http://www.w3.org/2000/svg" d="m43 17.003h14c.553 0 1-.447 1-1s-.447-1-1-1h-14c-.553 0-1 .447-1 1s.447 1 1 1z" fill="#e62445" data-original="#000000" style="" class=""/><path xmlns="http://www.w3.org/2000/svg" d="m43 20.003h14c.553 0 1-.447 1-1s-.447-1-1-1h-14c-.553 0-1 .447-1 1s.447 1 1 1z" fill="#e62445" data-original="#000000" style="" class=""/><path xmlns="http://www.w3.org/2000/svg" d="m53 23.003c.553 0 1-.447 1-1s-.447-1-1-1h-6c-.553 0-1 .447-1 1s.447 1 1 1z" fill="#e62445" data-original="#000000" style="" class=""/><path xmlns="http://www.w3.org/2000/svg" d="m49.994 29c-3.859 0-7 3.141-7 7v4.001c0 .553.447 1 1 1s1-.447 1-1v-4.001c0-2.757 2.243-5 5-5s5 2.243 5 5v4.001c0 .553.447 1 1 1s1-.447 1-1v-4.001c0-3.859-3.14-7-7-7z" fill="#e62445" data-original="#000000" style="" class=""/><path xmlns="http://www.w3.org/2000/svg" d="m49.994 32c-2.206 0-4 1.794-4 4v6.001c0 .553.447 1 1 1s1-.447 1-1v-6.001c0-1.103.897-2 2-2s2 .897 2 2v6.001c0 .553.447 1 1 1s1-.447 1-1v-6.001c0-2.206-1.794-4-4-4z" fill="#e62445" data-original="#000000" style="" class=""/><path xmlns="http://www.w3.org/2000/svg" d="m49.994 35c-.553 0-1 .447-1 1v7.001c0 .553.447 1 1 1s1-.447 1-1v-7.001c0-.553-.447-1-1-1z" fill="#e62445" data-original="#000000" style="" class=""/></g></svg>
