<svg xmlns="http://www.w3.org/2000/svg" width="152.1" height="141.236" viewBox="0 0 152.1 141.236">
  <g id="Group_37" data-name="Group 37" transform="translate(-447 -1239)">
    <g id="lan" transform="translate(447 1239)">
      <path id="Path_32" data-name="Path 32" d="M33.883,192H20.944l2.716,5.432h7.507Z" transform="translate(-13.833 -132.246)" fill="#880606"/>
      <path id="Path_33" data-name="Path 33" d="M21.432,26.864h5.432V32.3H32.3V16H16V32.3h5.432Zm0-8.148h5.432v5.432H21.432Z" transform="translate(-10.568 -16)" fill="#880606"/>
      <path id="Path_34" data-name="Path 34" d="M28.748,160H4.944l2.716,5.432H26.032Z" transform="translate(-3.265 -111.111)" fill="#880606"/>
      <path id="Path_35" data-name="Path 35" d="M56.445,289.186a19.034,19.034,0,0,1-19.013-19.013V224H32v46.173a24.472,24.472,0,0,0,24.445,24.445H75.477a46.355,46.355,0,0,1-8.008-5.432Z" transform="translate(-21.136 -153.382)" fill="#880606"/>
      <path id="Path_36" data-name="Path 36" d="M27.161,80H21.729v6.111a4.758,4.758,0,0,1-4.753,4.753h-6.79a4.758,4.758,0,0,1-4.753-4.753V80H0v21.729H27.161Z" transform="translate(0 -58.271)" fill="#880606"/>
      <path id="Path_37" data-name="Path 37" d="M32,80h5.432v5.432H32Z" transform="translate(-21.136 -58.271)" fill="#880606"/>
      <path id="Path_38" data-name="Path 38" d="M389.729,80v6.111a4.758,4.758,0,0,1-4.753,4.753h-6.79a4.758,4.758,0,0,1-4.753-4.753V80H368v21.729h27.161V80Z" transform="translate(-243.061 -58.271)" fill="#880606"/>
      <path id="Path_39" data-name="Path 39" d="M325.987,270.173a19.034,19.034,0,0,1-19.013,19.013H295.95a46.356,46.356,0,0,1-8.008,5.432h19.032a24.472,24.472,0,0,0,24.445-24.445V224h-5.432Z" transform="translate(-190.183 -153.382)" fill="#880606"/>
      <path id="Path_40" data-name="Path 40" d="M375.66,165.432h18.371L396.748,160h-23.8Z" transform="translate(-246.326 -111.111)" fill="#880606"/>
      <path id="Path_41" data-name="Path 41" d="M391.66,197.432h7.507L401.883,192H388.944Z" transform="translate(-256.894 -132.246)" fill="#880606"/>
      <path id="Path_42" data-name="Path 42" d="M400,80h5.432v5.432H400Z" transform="translate(-264.196 -58.271)" fill="#880606"/>
      <path id="Path_43" data-name="Path 43" d="M389.432,26.864h5.432V32.3H400.3V16H384V32.3h5.432Zm0-8.148h5.432v5.432h-5.432Z" transform="translate(-253.628 -16)" fill="#880606"/>
      <path id="Path_44" data-name="Path 44" d="M185.482,232.741a40.741,40.741,0,1,0-40.741,40.741A40.741,40.741,0,0,0,185.482,232.741ZM144.741,268.05a35.309,35.309,0,1,1,35.309-35.309A35.309,35.309,0,0,1,144.741,268.05Z" transform="translate(-68.691 -132.246)" fill="#880606"/>
      <path id="Path_45" data-name="Path 45" d="M165.877,224a29.877,29.877,0,1,0,29.877,29.877A29.877,29.877,0,0,0,165.877,224Zm0,5.6a24.328,24.328,0,0,1,15.292,5.422l-3.424,4.217a18.627,18.627,0,0,0-11.868-4.207Zm0,48.55V272.72a18.848,18.848,0,0,0,16.28-28.336l4.69-2.741a24.28,24.28,0,0,1-20.97,36.51Z" transform="translate(-89.827 -153.382)" fill="#880606"/>
    </g>
  </g>
</svg>
