<svg id="camera-drone" xmlns="http://www.w3.org/2000/svg" xmlns:xlink="http://www.w3.org/1999/xlink" width="180.475" height="135.382" viewBox="0 0 180.475 135.382">
  <defs>
    <linearGradient id="linear-gradient" x1="0.5" x2="0.5" y2="1" gradientUnits="objectBoundingBox">
      <stop offset="0" stop-color="#cf0909"/>
      <stop offset="0.807" stop-color="#710505"/>
      <stop offset="1" stop-color="#680505"/>
    </linearGradient>
  </defs>
  <path id="Path_27" data-name="Path 27" d="M172.035,102.87h-7.592V95.912a6.058,6.058,0,0,0-6.051-6.051h-1.764V84.931h15.506a8.341,8.341,0,1,0,0-16.681H156.628V66.68a2.641,2.641,0,1,0-5.281,0V68.25H135.841a8.341,8.341,0,1,0,0,16.681h15.506V89.86h-1.763a6.058,6.058,0,0,0-6.051,6.051v6.958H136.6a7.142,7.142,0,0,0-3.285.8l-1.165.606L121.9,94.034a12.278,12.278,0,0,0-8.739-3.62H83.052a2.641,2.641,0,1,0,0,5.281h30.114a7.031,7.031,0,0,1,5,2.073l9.068,9.068L113.468,114a3.409,3.409,0,0,1-1.566.383H68.574A3.4,3.4,0,0,1,67.008,114l-13.771-7.168,9.068-9.068a7.03,7.03,0,0,1,5-2.073H71.8a2.641,2.641,0,1,0,0-5.281H67.31a12.276,12.276,0,0,0-8.739,3.62L48.326,104.28l-1.165-.606a7.141,7.141,0,0,0-3.285-.8H36.942V95.912a6.058,6.058,0,0,0-6.051-6.051H29.128V84.931H44.634a8.341,8.341,0,0,0,0-16.681H29.128V66.68a2.641,2.641,0,1,0-5.281,0V68.25H8.341a8.341,8.341,0,0,0,0,16.681H23.847v4.929H22.084a6.058,6.058,0,0,0-6.051,6.051v6.958H8.44a8.4,8.4,0,1,0,0,16.8H25.414L12.944,138.4a4.872,4.872,0,0,0-.794,3.134l.8,8.775a2.641,2.641,0,0,0,2.626,2.4c.081,0,.162,0,.244-.011a2.64,2.64,0,0,0,2.388-2.87l-.79-8.625,14.335-21.53h1.117l8.042,9.015-15.7,15.008a4.879,4.879,0,0,0-1.5,3.51v31.005a1.447,1.447,0,0,1-2.888.132L19.24,161.034a2.64,2.64,0,0,0-5.259.482l1.586,17.306A6.728,6.728,0,0,0,29,178.208V147.384l15.439-14.757,13.134,14.724a8.681,8.681,0,0,0,6.471,2.9H79.72v10.113q-.853.487-1.654,1.051H63.944a5.832,5.832,0,0,0-5.825,5.825v3.11H53.171V169.7a5.4,5.4,0,0,0-5.389-5.389H43.05a5.4,5.4,0,0,0-5.389,5.389v17.64a5.4,5.4,0,0,0,5.389,5.389h4.732a5.4,5.4,0,0,0,5.389-5.389v-.651h4.948v3.11a5.832,5.832,0,0,0,5.825,5.825H78.067a20.834,20.834,0,0,0,23.99,0h14.122A5.832,5.832,0,0,0,122,189.8v-3.11h4.948v.651a5.4,5.4,0,0,0,5.389,5.389h4.732a5.4,5.4,0,0,0,5.389-5.389V169.7a5.4,5.4,0,0,0-5.389-5.389h-4.732a5.4,5.4,0,0,0-5.389,5.389v.651H122v-3.11a5.832,5.832,0,0,0-5.826-5.825H102.057q-.8-.563-1.654-1.051V150.251h16.032a8.68,8.68,0,0,0,6.471-2.9l13.135-14.724,15.439,14.757v30.823a6.728,6.728,0,0,0,13.428.614l3.418-37.291a4.875,4.875,0,0,0-.794-3.133l-12.47-18.728h16.973a8.4,8.4,0,0,0,0-16.8Zm.1-29.338a3.059,3.059,0,1,1,0,6.119H156.628V73.531ZM135.841,79.65a3.059,3.059,0,1,1,0-6.119h15.506V79.65ZM44.634,73.531a3.059,3.059,0,1,1,0,6.119H29.128V73.531ZM8.341,79.65a3.059,3.059,0,0,1,0-6.119H23.847V79.65ZM148.814,95.912a.771.771,0,0,1,.77-.77h8.808a.771.771,0,0,1,.77.77v6.958H148.815V95.912Zm-127.5,0a.771.771,0,0,1,.77-.77h8.808a.771.771,0,0,1,.77.77v6.958H21.313ZM47.89,187.338a.108.108,0,0,1-.108.108H43.05a.108.108,0,0,1-.108-.108V169.7a.108.108,0,0,1,.108-.108h4.732a.108.108,0,0,1,.108.108Zm5.281-5.932v-5.775h4.948v5.775ZM63.4,189.8V167.24a.545.545,0,0,1,.544-.544h8.891a20.846,20.846,0,0,0,0,23.646H63.944A.545.545,0,0,1,63.4,189.8Zm11.04-11.279a15.622,15.622,0,1,1,15.622,15.622A15.64,15.64,0,0,1,74.439,178.518Zm57.794-8.82a.108.108,0,0,1,.108-.108h4.732a.108.108,0,0,1,.108.108v17.64a.108.108,0,0,1-.108.108h-4.732a.108.108,0,0,1-.108-.108Zm-5.281,5.932v5.775H122v-5.775Zm-10.229-8.391V189.8a.545.545,0,0,1-.545.544h-8.891a20.846,20.846,0,0,0,0-23.646h8.891A.546.546,0,0,1,116.724,167.24Zm-21.6-9a20.869,20.869,0,0,0-10.121,0v-7.987H95.122ZM163.053,141.2l-3.4,37.141a1.447,1.447,0,0,1-2.888-.132V147.2a4.878,4.878,0,0,0-1.5-3.51l-15.7-15.008,8.042-9.015h1.116Zm8.983-26.811H146.417a2.641,2.641,0,0,0-1.971.883l-17.275,19.366h-13.22a2.641,2.641,0,1,0,0,5.281h8.51l-3.5,3.919a3.394,3.394,0,0,1-2.53,1.133H64.041a3.394,3.394,0,0,1-2.531-1.134l-3.5-3.919H102.7a2.641,2.641,0,1,0,0-5.281H53.3L36.029,115.27a2.641,2.641,0,0,0-1.971-.883H8.44a3.119,3.119,0,0,1,0-6.237H43.875a1.839,1.839,0,0,1,.846.207l19.847,10.331a8.705,8.705,0,0,0,4,.98H111.9a8.705,8.705,0,0,0,4-.98l19.848-10.332a1.84,1.84,0,0,1,.846-.207h35.435a3.119,3.119,0,0,1,0,6.238Z" transform="translate(0 -64.039)" fill="url(#linear-gradient)"/>
  <path id="Path_28" data-name="Path 28" d="M236.774,359.826a10.341,10.341,0,1,0,10.341,10.341A10.353,10.353,0,0,0,236.774,359.826Zm0,15.4a5.06,5.06,0,1,1,5.06-5.06A5.066,5.066,0,0,1,236.774,375.228Z" transform="translate(-146.713 -255.688)" fill="url(#linear-gradient)"/>
</svg>
