<svg xmlns="http://www.w3.org/2000/svg" width="173.835" height="119.189" viewBox="0 0 173.835 119.189">
  <g id="laptop" transform="translate(0 -80.475)">
    <g id="Group_13" data-name="Group 13" transform="translate(0 80.475)">
      <g id="Group_12" data-name="Group 12">
        <path id="Path_46" data-name="Path 46" d="M171.3,180.492h-5.087V90.9a10.434,10.434,0,0,0-10.422-10.422H18.045A10.434,10.434,0,0,0,7.623,90.9v89.6H2.536A2.536,2.536,0,0,0,0,183.029v3.036a13.614,13.614,0,0,0,13.6,13.6H124.958a2.536,2.536,0,1,0,0-5.072H13.6a8.537,8.537,0,0,1-8.527-8.527v-.5H65.615v4.514a2.536,2.536,0,0,0,2.536,2.536h37.532a2.536,2.536,0,0,0,2.536-2.536v-4.514h60.543v.5a8.537,8.537,0,0,1-8.527,8.527H142.88a2.536,2.536,0,1,0,0,5.072h17.356a13.615,13.615,0,0,0,13.6-13.6v-3.036A2.537,2.537,0,0,0,171.3,180.492Zm-68.151,7.05H70.688v-1.978h32.46Zm57.992-7.264H12.7V90.9a5.356,5.356,0,0,1,5.35-5.349H155.789a5.356,5.356,0,0,1,5.35,5.349Z" transform="translate(0 -80.475)" fill="#880606"/>
      </g>
    </g>
    <g id="Group_15" data-name="Group 15" transform="translate(16.84 90.369)">
      <g id="Group_14" data-name="Group 14" transform="translate(0 0)">
        <path id="Path_47" data-name="Path 47" d="M182.253,109.615H57.1a7.51,7.51,0,0,0-7.5,7.5V144.1a2.536,2.536,0,1,0,5.072,0V117.116a2.431,2.431,0,0,1,2.429-2.429H182.253a2.432,2.432,0,0,1,2.429,2.429v72.83H54.672V162.359a2.536,2.536,0,0,0-5.072,0v30.123a2.536,2.536,0,0,0,2.536,2.536H187.218a2.536,2.536,0,0,0,2.536-2.536V117.116A7.51,7.51,0,0,0,182.253,109.615Z" transform="translate(-49.6 -109.615)" fill="#880606"/>
      </g>
    </g>
  </g>
</svg>
