<svg xmlns="http://www.w3.org/2000/svg" width="164.108" height="130.429" viewBox="0 0 164.108 130.429">
  <g id="Group_36" data-name="Group 36" transform="translate(-201 -1287)">
    <g id="cctv-camera" transform="translate(201 1287)">
      <path id="Path_29" data-name="Path 29" d="M199.373,311.068a25.84,25.84,0,0,0,17.238-6.593,2.4,2.4,0,0,0-3.2-3.584,21.04,21.04,0,0,1-14.035,5.371,21.465,21.465,0,1,1,21.21-21.463,21.6,21.6,0,0,1-1.44,7.791,2.4,2.4,0,0,0,4.486,1.727,25.985,25.985,0,1,0-24.256,16.751Z" transform="translate(-117.803 -192.52)" fill="#880606"/>
      <path id="Path_30" data-name="Path 30" d="M217.129,314.865a11.99,11.99,0,1,0,11.99-12.092A12.054,12.054,0,0,0,217.129,314.865Zm19.172,0a7.183,7.183,0,1,1-7.182-7.285A7.243,7.243,0,0,1,236.3,314.865Z" transform="translate(-147.549 -222.587)" fill="#880606"/>
      <path id="Path_31" data-name="Path 31" d="M162.354,56.267a8.9,8.9,0,0,0-7.271-3.715H9.048C3.012,52.375-1.614,58.978.535,64.612L6.189,78.723a22.377,22.377,0,0,0,9.017,11.786v27.576A64.966,64.966,0,0,0,80.1,182.977h3.936a64.966,64.966,0,0,0,64.892-64.892V90.509a22.378,22.378,0,0,0,9.017-11.786L163.6,64.611a9.032,9.032,0,0,0-1.243-8.345ZM153.4,77.161A17.423,17.423,0,0,1,136.835,89.3h-6.059a2.4,2.4,0,1,0,0,4.807h6.059a22.089,22.089,0,0,0,7.283-1.234v25.21a59.982,59.982,0,0,1-21.606,46.11l-5.048-27.625a36.1,36.1,0,0,0-71.127,0l-.635,3.479a2.4,2.4,0,0,0,4.729.864l.635-3.479a31.293,31.293,0,0,1,61.669,0l5.488,30.031a59.746,59.746,0,0,1-34.19,10.705H80.1a59.749,59.749,0,0,1-34.479-10.906l2.8-15.315a2.4,2.4,0,1,0-4.729-.864l-2.351,12.87a59.976,59.976,0,0,1-21.324-45.871V92.875A22.088,22.088,0,0,0,27.3,94.109h92.258a2.4,2.4,0,1,0,0-4.807H27.3c-12.1-.311-15.72-8.943-19.268-18.914H25.665a2.4,2.4,0,1,0,0-4.807H6.1L5.03,62.907a4.289,4.289,0,0,1,4.018-5.549H155.083a4.289,4.289,0,0,1,4.018,5.549l-1.071,2.674H36.881a2.4,2.4,0,1,0,0,4.807H156.1C156.049,70.539,153.436,77.019,153.4,77.161Z" transform="translate(0 -52.548)" fill="#880606"/>
    </g>
  </g>
</svg>
